<?xml version="1.0" standalone="no"?>
<!DOCTYPE svg PUBLIC "-//W3C//DTD SVG 1.1//EN" "http://www.w3.org/Graphics/SVG/1.1/DTD/svg11.dtd" >
<svg xmlns="http://www.w3.org/2000/svg" xmlns:xlink="http://www.w3.org/1999/xlink" version="1.1">
<metadata></metadata>
<defs>
<font id="rlfont_blackregular" horiz-adv-x="1228" >
<font-face units-per-em="2048" ascent="1536" descent="-512" />
<missing-glyph horiz-adv-x="452" />
<glyph horiz-adv-x="0" />
<glyph unicode="&#xd;" horiz-adv-x="452" />
<glyph unicode=" "  horiz-adv-x="452" />
<glyph unicode="&#x09;" horiz-adv-x="452" />
<glyph unicode="&#xa0;" horiz-adv-x="452" />
<glyph unicode="!" horiz-adv-x="538" d="M96 424v1010h344v-942q0 -37 -16 -52.5t-53 -15.5h-275zM100 141q0 33 13.5 62.5t36 51t53 34t65.5 12.5q72 0 120 -47t48 -113t-48 -112.5t-120 -46.5q-35 0 -65.5 12t-53 33.5t-36 51.5t-13.5 62z" />
<glyph unicode="&#x22;" horiz-adv-x="755" d="M70 1061v475h254v-408q0 -37 -16.5 -52t-53.5 -15h-184zM434 1061v475h254v-408q0 -37 -16.5 -52t-53.5 -15h-184z" />
<glyph unicode="#" horiz-adv-x="1273" d="M12 424v188h232l37 244h-201v174h231l64 404h256l-64 -404h295l64 404h245l-63 -404h188v-174h-219l-39 -244h191v-188h-221l-56 -361q-6 -35 -22.5 -49t-50.5 -14h-181l66 424h-297l-55 -361q-6 -35 -22.5 -49t-51.5 -14h-191l66 424h-201zM498 612h297l36 244h-294z " />
<glyph unicode="$" horiz-adv-x="1181" d="M57 94l64 254q76 -18 147 -35q61 -14 129 -26.5t119 -16.5q104 -10 160.5 24t56.5 130q0 47 -29.5 79t-76.5 55.5t-108.5 41.5t-124 41t-122 52.5t-105.5 75.5t-72.5 110.5t-22.5 156.5q4 100 38.5 171t90 118t126 73.5t146.5 39.5v186h211v-178q86 -6 155.5 -20.5 t121.5 -30.5q59 -18 108 -41l-100 -248q-59 16 -121 31q-53 12 -112.5 22t-112.5 10q-78 0 -127.5 -30.5t-49.5 -96.5q0 -55 49.5 -84.5t122 -53t158.5 -50.5t159 -77t122 -134t49 -221q0 -84 -26.5 -158t-79 -131t-132.5 -94t-184 -47v-121q0 -63 -66 -64h-145v187 q-92 8 -167 25.5t-130 33.5q-66 20 -119 41z" />
<glyph unicode="%" horiz-adv-x="1837" d="M74 983q0 98 29.5 170t78.5 118t111 67.5t123 21.5t121.5 -22.5t109.5 -68.5t79 -117t30 -169q0 -111 -32 -186.5t-81 -123.5t-109.5 -69.5t-117.5 -21.5q-63 0 -125 20.5t-110 68.5t-77.5 124.5t-29.5 187.5zM307 979q0 -123 38 -171t83 -48q20 0 40.5 11t38 38t29 68 t11.5 102q0 106 -38 155.5t-81 49.5q-45 0 -83 -48.5t-38 -156.5zM401 0l738 1434h284l-706 -1371q-33 -63 -96 -63h-220zM1028 389q0 98 29.5 170t79 118t111 67.5t122.5 21.5t121.5 -22.5t110 -68.5t79 -117t29.5 -169q0 -111 -31.5 -186.5t-81 -123.5t-110 -69.5 t-117.5 -21.5q-63 0 -124.5 20.5t-110 68.5t-78 125t-29.5 187zM1262 385q0 -123 37.5 -171t82.5 -48q20 0 41 11t38.5 38t28.5 68t11 102q0 106 -38 155.5t-81 49.5q-45 0 -82.5 -48t-37.5 -157z" />
<glyph unicode="&#x26;" horiz-adv-x="1441" d="M76 375q0 88 28.5 158.5t68.5 123t82 86t71 50.5q-53 72 -80 133t-31 133q-6 88 27.5 160.5t95 123t147.5 78t189 27.5q59 0 121.5 -7t111.5 -18q57 -10 111 -22l-53 -232q-39 6 -80 15q-35 6 -77 11t-83 5q-92 0 -144.5 -35t-52.5 -110q0 -45 13.5 -82t57.5 -95.5 t127 -150.5t220 -248q14 27 19.5 55.5t7.5 53.5q2 29 0 55h-96v205h503v-170q0 -18 -10 -26.5t-27 -8.5h-79q-10 -123 -42 -212t-79 -142q31 -35 65.5 -74t64.5 -72.5t50 -57.5t25 -26q20 -23 10 -41t-25 -18h-340q2 -4 -6 5t-21.5 24.5t-28.5 34t-28 30.5 q-86 -61 -165.5 -87.5t-165.5 -26.5q-94 0 -184.5 24.5t-161 73.5t-113.5 123.5t-43 173.5zM389 406q0 -33 9.5 -66t34 -58.5t66.5 -41t107 -15.5q45 0 81 13.5t63 29.5q-4 2 -26 26.5t-53.5 59.5l-67.5 75t-67.5 76t-54 60.5t-26.5 28.5q-35 -35 -50.5 -83t-15.5 -105z" />
<glyph unicode="'" horiz-adv-x="473" d="M104 1061v475h254v-408q0 -37 -16 -52t-53 -15h-185z" />
<glyph unicode="(" horiz-adv-x="575" d="M78 666q0 170 21.5 311t54 251.5t70.5 192.5t70 136.5t54 80.5l23 27l170 -102q-57 -84 -101 -211q-39 -111 -69.5 -280t-30.5 -404q0 -236 31.5 -403t72.5 -275q47 -127 107 -209l-178 -115l-23 28q-22 27 -55 81.5t-71 136.5t-70.5 193.5t-54 251t-21.5 309.5z" />
<glyph unicode=")" horiz-adv-x="536" d="M0 -219q57 82 104 209q41 109 74 275.5t33 402.5t-32 404.5t-68 279.5q-45 127 -101 211l170 102l22 -27q23 -26 55 -80.5t70 -136.5t70.5 -192.5t54 -251.5t21.5 -311t-21.5 -309.5t-54 -251t-70.5 -193.5t-71 -136.5t-56 -81.5l-22 -28z" />
<glyph unicode="*" horiz-adv-x="919" d="M31 1061l71 229l244 -96l-10 254h248l-6 -254l245 82l62 -225l-240 -56l166 -233l-217 -129l-137 239l-113 -233l-229 123l159 237z" />
<glyph unicode="+" horiz-adv-x="1093" d="M35 430v236h393v381h252v-381h377v-236h-377v-367q0 -63 -66 -63h-186v430h-393z" />
<glyph unicode="," horiz-adv-x="473" d="M70 125q-4 66 44 117t126 55q41 2 72.5 -11.5t54 -38t36 -56t15.5 -64.5q4 -70 -7.5 -124t-31 -96t-47 -74t-56.5 -52q-68 -51 -159 -70l-37 107q86 33 109.5 76t21.5 94q-37 -2 -63.5 11t-43 33.5t-25.5 45t-9 47.5z" />
<glyph unicode="-" horiz-adv-x="792" d="M96 446v193h600v-193h-600z" />
<glyph unicode="." horiz-adv-x="403" d="M35 141q0 33 13 62.5t35.5 51t53.5 34t66 12.5q72 0 120 -47t48 -113t-48 -112.5t-120 -46.5q-35 0 -66 12t-53.5 33.5t-35.5 51.5t-13 62z" />
<glyph unicode="/" horiz-adv-x="1026" d="M6 0l737 1434h287l-706 -1371q-33 -63 -97 -63h-221z" />
<glyph unicode="0" d="M39 737q0 162 27.5 293t93 223.5t174 142.5t270.5 50q168 0 279.5 -51.5t179 -146.5t95.5 -231t28 -308t-31 -306.5t-101.5 -226.5t-183 -140t-278.5 -48t-273.5 48t-170 143t-86 234.5t-23.5 323.5zM393 725q0 -129 11.5 -216t37 -139.5t65.5 -75t99 -22.5 q57 0 100.5 20.5t72 73t42 140.5t13.5 221q0 131 -12.5 217t-39 136t-65.5 69.5t-92 19.5q-66 0 -110 -20.5t-70.5 -71.5t-39 -137t-12.5 -215z" />
<glyph unicode="1" d="M162 1331l647 113v-1178h213v-203q0 -63 -68 -63h-735v266h246v858l-272 -34z" />
<glyph unicode="2" d="M96 213q-2 113 47.5 197t123 147.5t160.5 114.5t162 99t125 100.5t50 119.5q0 88 -49 137.5t-168 55.5q-57 4 -121 -5.5t-117 -21.5q-63 -14 -123 -33l-49 224q63 27 139 49q66 18 150 34.5t182 16.5q240 0 376 -106.5t136 -325.5q0 -119 -48 -207t-119.5 -153.5 t-156.5 -114.5t-157 -93.5t-120 -87.5t-48 -94h647v-203q0 -63 -67 -63h-951z" />
<glyph unicode="3" d="M127 41l39 252q47 -8 102 -14q47 -6 108.5 -10.5t131.5 -4.5q49 0 96 9.5t84 31t58.5 59t21.5 95.5q0 104 -61.5 142t-182.5 38q-10 0 -40.5 -1t-65.5 -1q-39 -2 -86 -2v235h207q98 0 153.5 42t55.5 137q0 61 -48.5 96t-146.5 35q-66 0 -129.5 -6.5t-114.5 -14.5 q-59 -8 -114 -20l-48 211q82 27 164 49q72 18 155 33.5t155 15.5q236 0 355.5 -92t129.5 -248q6 -98 -23.5 -164.5t-68.5 -107.5q-45 -49 -103 -76q59 -23 109 -66q41 -39 74.5 -104.5t33.5 -169.5q0 -117 -40.5 -198t-113.5 -133t-171 -75.5t-213 -23.5q-82 2 -164 9 t-147 17q-78 10 -152 25z" />
<glyph unicode="4" d="M74 301v289l616 844h344v-893h162v-240h-162v-238q0 -63 -67 -63h-277v301h-616zM393 541h297v434z" />
<glyph unicode="5" d="M125 47l43 248q41 -8 94 -16q45 -6 105.5 -10.5t132.5 -4.5q61 0 113.5 11.5t91 35t61 61.5t25.5 91q2 74 -13.5 121t-52.5 72.5t-97.5 35.5t-146.5 10h-321v732h880v-242h-536v-254h90q129 0 230.5 -27.5t172 -86t106.5 -149.5t32 -220q-4 -106 -44 -192.5t-113 -148 t-178.5 -94t-240.5 -32.5q-84 2 -160.5 11t-138.5 19q-72 12 -135 29z" />
<glyph unicode="6" d="M55 526q4 66 17.5 121t28 97t26.5 69t16 35q8 16 29 51t47.5 79t58 95t62.5 103q74 119 160 260h370l-309 -484q23 6 49 11q23 4 54.5 6t66.5 0q86 -4 166 -37t141.5 -96.5t98.5 -155.5t37 -213q0 -96 -35 -182t-103.5 -151.5t-171 -104.5t-235.5 -39q-152 0 -262.5 40 t-182 110.5t-103.5 170t-26 215.5zM408 508q-6 -119 44 -179.5t171 -60.5q102 0 152 61.5t50 157.5q0 98 -48 158t-165 60q-90 0 -145 -56.5t-59 -140.5z" />
<glyph unicode="7" d="M113 0l614 1176h-586l2 258h973v-222l-612 -1212h-391z" />
<glyph unicode="8" d="M43 420q0 86 27.5 148.5t66.5 105.5t81 69.5t73 40.5q-59 43 -105.5 111t-46.5 166q0 106 42 181t110.5 120t157 65.5t180.5 20.5q88 0 175 -20.5t156.5 -66.5t112.5 -122t43 -186q0 -70 -18.5 -120t-45 -86t-57 -59.5t-55.5 -35.5q49 -16 94 -44t79 -69t53.5 -94 t19.5 -121q0 -205 -143.5 -320.5t-424.5 -115.5q-283 0 -429 114.5t-146 317.5zM397 451q0 -39 11.5 -73t36 -59.5t65.5 -40t100 -14.5q113 0 163 50.5t50 134.5q0 43 -23.5 76.5t-63.5 58t-90 43t-105 35.5q-16 -4 -41 -18.5t-47.5 -40t-39 -63.5t-16.5 -89zM463 1016 q6 -74 74.5 -116t167.5 -66q10 6 27.5 22t32.5 39t26.5 52.5t11.5 64.5q0 66 -39 117t-129 51q-86 0 -131 -43t-41 -121z" />
<glyph unicode="9" d="M51 969q0 96 35 182t103.5 151.5t171 104.5t235.5 39q152 0 260.5 -37t178 -104.5t102 -162.5t32.5 -212q0 -66 -10 -121t-25.5 -101t-31 -81t-27.5 -56q-10 -16 -30.5 -50t-48 -77t-59.5 -93t-65 -99q-76 -115 -165 -252h-381l338 483q-23 -6 -50 -10q-23 -4 -54.5 -6 t-65.5 0q-86 4 -166 37t-141.5 96.5t-98.5 155.5t-37 213zM403 958q0 -96 47.5 -153t161.5 -57q88 0 142.5 55t58.5 137q4 117 -44 176.5t-167 59.5q-98 0 -148.5 -61.5t-50.5 -156.5z" />
<glyph unicode=":" horiz-adv-x="471" d="M74 141q0 33 13 62.5t35.5 51t53.5 34t66 12.5q72 0 120 -47t48 -113t-48 -112.5t-120 -46.5q-35 0 -66 12t-53.5 33.5t-35.5 51.5t-13 62zM74 690q0 33 13 62.5t35.5 51t53.5 34t66 12.5q72 0 120 -47t48 -113t-48 -113t-120 -47q-35 0 -66 12.5t-53.5 34t-35.5 51 t-13 62.5z" />
<glyph unicode=";" horiz-adv-x="471" d="M70 125q-4 66 44 117t126 55q41 2 72.5 -11.5t54 -38t36 -56t15.5 -64.5q4 -70 -7.5 -124t-31 -96t-47 -74t-56.5 -52q-68 -51 -159 -70l-37 107q86 33 109.5 76t21.5 94q-37 -2 -63.5 11t-43 33.5t-25.5 45t-9 47.5zM88 694q0 66 45 111t109 45q66 0 109.5 -45 t43.5 -111q0 -63 -43.5 -108t-109.5 -45q-63 0 -108.5 45t-45.5 108z" />
<glyph unicode="&#x3c;" horiz-adv-x="929" d="M10 621v139l910 334v-240l-521 -164l521 -172v-242z" />
<glyph unicode="=" horiz-adv-x="1030" d="M41 602v238h948v-238h-948zM43 276v238h944v-172q0 -66 -63 -66h-881z" />
<glyph unicode="&#x3e;" horiz-adv-x="929" d="M10 276v242l520 172l-520 164v240l910 -334v-139z" />
<glyph unicode="?" horiz-adv-x="1050" d="M94 1391q59 16 119 28q51 10 111.5 19.5t115.5 9.5q117 0 212.5 -26.5t163 -79t103 -127t31.5 -173.5q-4 -96 -34.5 -159.5t-74.5 -108.5t-93.5 -75.5t-91.5 -57.5t-69.5 -55.5t-27.5 -69.5v-94h-344v88q0 84 27.5 142.5t69.5 100.5t92.5 73.5t93.5 62.5t72.5 65.5 t33.5 83.5q2 47 -12 77t-44 47.5t-70 23.5t-87 6q-43 0 -89 -6t-87 -15q-47 -8 -92 -20zM215 141q0 33 13.5 62.5t36 51t53 34t65.5 12.5q72 0 120 -47t48 -113t-48 -112.5t-120 -46.5q-35 0 -65.5 12t-53 33.5t-36 51.5t-13.5 62z" />
<glyph unicode="@" horiz-adv-x="1824" d="M121 721q0 197 81 336t203.5 226t268 127t276.5 40q119 0 253 -32t247 -105.5t187.5 -196.5t74.5 -305q0 -102 -39 -190.5t-101.5 -150.5t-141 -97t-158.5 -31q-92 4 -155.5 39t-72.5 63q-25 -29 -65.5 -58.5t-112.5 -39.5t-136 8.5t-110.5 65.5t-69 124t-9.5 183 q12 106 52 179t94 119t116.5 68.5t122.5 26.5q72 6 132 -4t101 -26q49 -18 88 -41q-12 -96 -20 -179q-4 -35 -8.5 -70.5t-7.5 -66.5t-5 -53.5t-4 -34.5q-4 -39 4 -62.5t23.5 -37t37 -17.5t42.5 -2q31 4 59.5 17.5t49 45.5t32.5 84t12 136q0 98 -35.5 176t-102.5 133.5 t-161 85t-213 29.5q-133 0 -238.5 -37t-180 -103.5t-114.5 -160.5t-40 -207q0 -137 37 -232.5t106.5 -156t167.5 -88t219 -27.5q78 0 141.5 9.5t108.5 21.5q53 12 94 31l90 -189q-53 -29 -120 -51q-59 -20 -143.5 -36.5t-192.5 -18.5q-133 -2 -269.5 34.5t-246 122.5 t-179 227.5t-69.5 348.5zM791 731q-8 -111 18.5 -151.5t87.5 -36.5q31 4 58.5 42t37.5 113q4 35 8.5 76t7.5 77t3 47l2 34q4 2 -21.5 7t-72.5 -5q-113 -29 -129 -203z" />
<glyph unicode="A" horiz-adv-x="1353" d="M47 0l465 1434h403l218 -684q41 -129 79.5 -251t69.5 -220q37 -114 70 -216q3 -11 3 -20q0 -43 -61 -43h-329l-80 319h-363l-92 -319h-383zM580 563h258l-131 524z" />
<glyph unicode="B" horiz-adv-x="1286" d="M123 29v1380q82 10 166 18q72 8 159 14.5t166 6.5q145 0 249 -23.5t168.5 -72.5t94 -124t29.5 -175q0 -98 -51 -171t-123 -110q123 -39 186.5 -135t63.5 -217q0 -231 -155.5 -331.5t-452.5 -100.5q-80 0 -168 6t-162 14q-86 8 -170 21zM479 256q18 -2 41 -4q20 -2 51 -2 h72q70 0 115 16.5t71.5 42t37 60t10.5 71.5q0 178 -220 185h-68.5t-56.5 -2q-29 -2 -53 -2v-365zM479 860h51q23 0 47.5 -1t47.5 1q80 4 130 41t50 125q0 86 -45 129t-164 43q-18 0 -39.5 -1t-38.5 -3q-20 -2 -39 -2v-332z" />
<glyph unicode="C" horiz-adv-x="1179" d="M66 735q0 186 48 321.5t133 222.5t201.5 128t253.5 41q78 0 150 -9t125 -20q63 -12 119 -26l-49 -238q-49 12 -101 21q-43 8 -93 13q-36 4 -68 4q-13 0 -25 -1q-76 -6 -138.5 -30.5t-106.5 -78t-68.5 -140.5t-24.5 -216q0 -135 21.5 -224t63.5 -142.5t104.5 -77 t144.5 -29.5q21 -2 43 -2q28 0 58 3q54 5 101 13q53 8 107 21l39 -256q-63 -14 -135 -23q-61 -10 -139 -16t-156 -6q-131 0 -243 34.5t-192.5 119.5t-126.5 229.5t-46 363.5z" />
<glyph unicode="D" horiz-adv-x="1335" d="M123 6v1419q72 4 153 11q72 4 164.5 8t196.5 4q150 0 267.5 -39t198.5 -126t123 -225t42 -335t-45 -336t-129 -228t-202 -130t-265 -41q-111 0 -202 2t-159 6q-80 4 -143 10zM479 260q23 -2 47 -4q23 -2 48.5 -3t52.5 -1q59 0 111.5 19.5t90 73.5t59 148.5t21.5 241.5 q0 150 -22.5 241t-59 140t-85 64.5t-99.5 15.5q-29 0 -58.5 -1t-52.5 -3q-27 -2 -53 -2v-930z" />
<glyph unicode="E" horiz-adv-x="1099" d="M123 0v1434h899v-242h-543v-330h494v-241h-494v-369h553v-186q0 -66 -69 -66h-840z" />
<glyph unicode="F" horiz-adv-x="1079" d="M123 0v1434h889v-242h-533v-342h484v-242h-484v-542q0 -66 -69 -66h-287z" />
<glyph unicode="G" horiz-adv-x="1292" d="M63 715q0 358 174.5 541.5t485.5 191.5h33q73 0 136 -7q77 -9 132 -24q66 -16 115 -37l-62 -254q-43 16 -96 29q-45 10 -103 17q-39 5 -80 5q-21 0 -44 -1q-78 -4 -139.5 -30t-105.5 -79t-67.5 -138t-23.5 -208q0 -229 70.5 -343t246.5 -116q27 0 48.5 2t41.5 6v351h-176 v241h533v-735q0 -27 -14.5 -42t-34.5 -26q-29 -12 -77 -25.5t-106.5 -23.5t-123 -16t-128.5 -6q-150 0 -267.5 39t-199 125t-125 224t-43.5 339z" />
<glyph unicode="H" horiz-adv-x="1353" d="M123 0v1434h356v-572h395v572h357v-1371q0 -63 -66 -63h-291v621h-395v-621h-356z" />
<glyph unicode="I" horiz-adv-x="598" d="M121 0v1434h356v-1371q0 -63 -65 -63h-291z" />
<glyph unicode="J" horiz-adv-x="698" d="M31 0v252q25 -2 47 -1t45 3q55 4 80.5 29.5t25.5 78.5v1072h357v-1108q0 -92 -25.5 -152.5t-72 -97.5t-109 -53.5t-135.5 -20.5q-18 0 -46 -1t-57.5 -1h-59.5h-50z" />
<glyph unicode="K" horiz-adv-x="1292" d="M121 0v1434h356v-555l391 555h383l-479 -641l498 -730q18 -29 9 -46t-38 -17h-356l-328 539l-80 -97v-442h-356z" />
<glyph unicode="L" horiz-adv-x="1060" d="M123 0v1434h356v-1182h553v-186q0 -66 -69 -66h-840z" />
<glyph unicode="M" horiz-adv-x="1824" d="M123 0v1434h522l266 -967l269 967h522v-1371q0 -63 -66 -63h-295l13 995l-301 -995h-299l-285 997l14 -997h-360z" />
<glyph unicode="N" horiz-adv-x="1363" d="M125 0v1434h399l371 -816l-14 816h360v-1371q0 -35 -14.5 -49t-48.5 -14h-304l-405 887l14 -887h-358z" />
<glyph unicode="O" horiz-adv-x="1339" d="M66 739q0 352 145.5 530.5t458.5 178.5q162 0 277.5 -45t187 -136t105.5 -230.5t34 -327.5q0 -193 -37 -329t-111.5 -223t-191.5 -127t-277 -40q-162 0 -274.5 41t-183 131t-102 232.5t-31.5 344.5zM424 729q0 -129 10 -217t37 -143.5t74 -80t121 -24.5q70 0 119 19.5 t79.5 72t45 142.5t14.5 233t-15.5 231.5t-45 137.5t-75 65.5t-104.5 16.5q-76 0 -126 -22.5t-79.5 -76t-42 -139.5t-12.5 -215z" />
<glyph unicode="P" horiz-adv-x="1210" d="M121 0v1419q72 6 151 15l153 9t171 5q291 0 430 -110.5t139 -356.5q0 -158 -48 -262.5t-137 -164.5t-217 -80q-86 -14 -186 -14q-49 0 -100 3v-395q0 -37 -16.5 -52.5t-52.5 -15.5h-287zM477 741q16 0 35 -2q16 -2 34.5 -3t41.5 1q121 4 169 55.5t48 172.5 q0 104 -42 157.5t-161 53.5q-23 0 -46.5 -1t-39.5 -4q-23 -2 -39 -2v-428z" />
<glyph unicode="Q" horiz-adv-x="1341" d="M68 739q0 352 145 530.5t459 178.5q162 0 277.5 -45t187 -136t105.5 -230.5t34 -327.5q0 -154 -33 -274t-94 -210q27 -25 49.5 -44t38.5 -36q21 -18 37 -30q16 -17 16 -34q0 -18 -18 -36l-31.5 -31.5t-50.5 -48.5q-31 -29 -66 -63l-153 161q-131 -73 -307 -73h-5 q-162 0 -274.5 41t-183 131t-102 232.5t-31.5 344.5zM424 719q0 -129 10 -217t38 -142.5t75 -77t121 -22.5q31 0 49 4t41 8l-119 103l180 190q12 -14 27 -30q12 -14 29.5 -33t39.5 -41q4 51 7.5 113.5t3.5 146.5q0 147 -15.5 237.5t-45 139.5t-75 65.5t-104.5 16.5 q-76 0 -126 -23.5t-80.5 -77t-43 -141.5t-12.5 -219z" />
<glyph unicode="R" horiz-adv-x="1239" d="M121 0v1415q76 8 158 17q70 6 155.5 11t169.5 5q303 0 437.5 -113.5t134.5 -345.5q0 -61 -14.5 -126.5t-45.5 -124t-76 -104.5t-106 -69q10 -14 35.5 -58t62.5 -110.5t81 -148.5t93 -174q18 -35 3 -54.5t-52 -19.5h-295l-106 225q-20 43 -40 84t-35 74t-25.5 53.5 t-12.5 24.5q-10 18 -20.5 25.5t-32.5 7.5h-113v-494h-356zM475 774h164q78 0 127 51.5t49 151.5q0 102 -44 152.5t-165 50.5q-23 0 -46 -1t-42 -3q-23 -2 -43 -5v-397z" />
<glyph unicode="S" horiz-adv-x="1181" d="M57 94l64 254q76 -18 147 -35q61 -14 129 -26.5t119 -16.5q24 -2 45 -2q71 0 115 26q56 34 57 130q0 47 -29.5 79t-76.5 55.5t-108.5 41.5t-124 41t-122 52.5t-105.5 75.5q-47 47 -73 111q-23 56 -23 132q0 12 1 24q6 125 57 205t129 126t173 63.5t190 17.5 q98 0 180 -15.5t141 -31.5q70 -23 127 -47l-100 -248q-59 16 -121 31q-53 12 -112.5 22t-112.5 10q-78 0 -127.5 -30.5t-49.5 -96.5q0 -55 49.5 -84.5t122 -53t158.5 -50.5t159 -77t122 -134t49 -221q0 -92 -32 -171t-94 -137.5t-156.5 -92t-219.5 -33.5q-117 0 -215 16 t-172 37q-86 23 -160 53z" />
<glyph unicode="T" horiz-adv-x="1114" d="M18 1192v242h1076v-242h-359v-1129q0 -63 -65 -63h-291v1192h-361z" />
<glyph unicode="U" horiz-adv-x="1345" d="M113 571v863h356v-934q0 -51 9 -95.5t33 -76t64.5 -49t104.5 -17.5q63 0 102 18.5t60.5 50t29 72.5t7.5 84v947h356v-873q0 -293 -138.5 -433t-430.5 -140q-291 0 -422 149.5t-131 433.5z" />
<glyph unicode="V" horiz-adv-x="1288" d="M27 1434h385l235 -1059l234 1059h387l-410 -1368q-20 -66 -86 -66h-326z" />
<glyph unicode="W" horiz-adv-x="1964" d="M25 1434h366l162 -1014l250 1014h323l238 -1014l188 1014h381l-354 -1371q-20 -63 -84 -63h-338l-196 920l-232 -920h-399z" />
<glyph unicode="X" horiz-adv-x="1314" d="M57 0l398 727l-349 707h392l176 -449l196 449h396l-359 -695l359 -669q16 -27 2.5 -48.5t-35.5 -21.5h-332l-229 471l-213 -471h-402z" />
<glyph unicode="Y" horiz-adv-x="1218" d="M33 1434h375l198 -650l217 650h365l-408 -961v-410q0 -63 -65 -63h-291v469z" />
<glyph unicode="Z" horiz-adv-x="1173" d="M72 0v254l630 922h-604v258h1006v-242l-639 -928h643v-196q0 -37 -16.5 -52.5t-53.5 -15.5h-966z" />
<glyph unicode="[" horiz-adv-x="614" d="M33 -330v1882h413v-217h-161v-1446h178v-153q0 -66 -70 -66h-360z" />
<glyph unicode="\" horiz-adv-x="679" d="M-37 1456l242 80l516 -1536q10 -33 0 -51.5t-41 -30.5q-2 0 -28.5 -9t-61.5 -20q-39 -12 -88 -28z" />
<glyph unicode="]" horiz-adv-x="614" d="M131 -111h178v1446h-162v217h414v-1882h-360q-70 0 -70 66v153z" />
<glyph unicode="^" horiz-adv-x="1331" d="M197 643l391 797h168l395 -807h-270l-211 454l-209 -444h-264z" />
<glyph unicode="_" horiz-adv-x="1054" d="M0 -68h1055v-237h-1055v237z" />
<glyph unicode="`" horiz-adv-x="675" d="M109 1288l104 203l346 -209l-88 -172z" />
<glyph unicode="a" horiz-adv-x="1083" d="M51 322q0 158 93.5 239.5t246.5 93.5q41 4 86 5.5t84 3.5q45 2 88 2v36q0 57 -28.5 85t-110.5 28q-53 0 -110.5 -7t-104.5 -17q-55 -10 -111 -23l-47 209q70 20 146 39q66 16 143.5 28.5t155.5 14.5h18q72 -1 138 -15q74 -16 131 -55t89.5 -103.5t32.5 -158.5v-676 q-57 -16 -125 -31q-59 -12 -136 -22t-167 -10h-21q-120 0 -208 22q-96 24 -158.5 66.5t-93.5 105t-31 140.5zM406 338q0 -66 41.5 -95.5t107.5 -29.5q43 0 68 6q14 2 26 6v244h-43q-18 0 -39.5 -2t-38.5 -4q-66 -10 -94 -41t-28 -84z" />
<glyph unicode="b" horiz-adv-x="1150" d="M102 49v1413l344 66v-512q23 12 58 20q29 8 70.5 15.5t101.5 7.5q61 0 135 -22.5t138.5 -80t108.5 -152.5t44 -241q0 -164 -39 -272.5t-106.5 -175t-158.5 -96t-196 -31.5q-32 -1 -63 -1q-69 0 -133 6q-92 9 -158 21q-80 14 -146 35zM449 281q14 -4 30 -9q27 -6 72 -6 q55 0 94 12.5t64.5 43t37 81t11.5 125.5q0 143 -43 204t-133 61q-25 0 -49.5 -3.5t-43.5 -7.5l-40 -10v-491z" />
<glyph unicode="c" horiz-adv-x="985" d="M51 537q0 135 38 233t106.5 162.5t164 95.5t209.5 31q74 0 140.5 -14.5t117.5 -30.5q59 -20 113 -43l-100 -215q-39 14 -80 24q-35 10 -79 16q-27 4 -53 5q-16 0 -32 -2q-100 -8 -151.5 -68.5t-51.5 -202.5q0 -80 15.5 -133t44 -83.5t69.5 -43t94 -14.5q21 -2 41 -2 q29 0 55 4q42 6 74 14q37 8 68 23l88 -213q-45 -27 -102 -47q-49 -16 -117 -30.5t-152 -14.5q-111 0 -206 25.5t-164.5 88t-109.5 169t-40 266.5z" />
<glyph unicode="d" horiz-adv-x="1157" d="M51 530q0 145 40 246t107.5 164.5t155.5 91t185 27.5q29 0 59.5 -2t54.5 -6q29 -4 58 -9v420l344 66v-1479q-70 -20 -152 -35q-72 -12 -163 -21q-63 -6 -132 -6q-31 0 -63 1q-102 2 -192.5 26.5t-157 85t-105.5 164t-39 266.5zM408 535q0 -78 11 -129.5t37.5 -82 t67.5 -43t101 -12.5q41 0 63 6q12 4 23 9v489q-8 4 -27 10q-16 4 -41 7.5t-59 3.5q-45 0 -78 -11.5t-54.5 -41t-32.5 -80t-11 -125.5z" />
<glyph unicode="e" horiz-adv-x="1097" d="M51 530q0 137 41 237.5t110.5 165t164 95.5t200.5 31q145 0 241.5 -45t151.5 -126q54 -82 72 -194q11 -69 10 -147q0 -49 -4 -101h-626q0 -111 66.5 -152.5t183.5 -41.5q53 0 103 10t87 23q43 14 82 34l102 -217q-61 -33 -137 -57q-66 -23 -153 -40t-191 -17 q-248 0 -376 132t-128 410zM420 639h276q1 12 1 24q0 29 -7 56q-10 31 -33.5 56.5t-74.5 25.5q-158 0 -162 -162z" />
<glyph unicode="f" horiz-adv-x="835" d="M20 807v240h173v129q0 174 107.5 273t295.5 99q59 0 111.5 -11t91.5 -24q45 -16 84 -34l-99 -219q-16 6 -36 14q-16 6 -40 11t-49 5q-39 0 -62.5 -13t-36.5 -38t-18 -56.5t-5 -68.5v-67h227v-240h-227v-739q0 -37 -13.5 -52.5t-44.5 -15.5h-286v807h-173z" />
<glyph unicode="g" horiz-adv-x="1142" d="M51 510q0 276 125.5 411.5t401.5 135.5q74 0 155.5 -8.5t149.5 -18.5q80 -10 157 -24v-938q0 -279 -126 -421.5t-382 -142.5q-111 0 -197.5 18.5t-148.5 41.5q-72 27 -129 61l99 230q53 -20 106 -37q47 -14 100.5 -27.5t100.5 -15.5q16 -1 32 -1q31 0 59 3q42 4 75 27.5 t51 73.5t18 140q-29 -8 -63 -14q-29 -6 -70 -10t-88 -4q-88 0 -164.5 34.5t-135 101.5t-92.5 163t-34 221zM403 508q0 -76 15.5 -123t40 -72.5t57.5 -35t68 -9.5q49 0 80 6q18 4 32 9v499q-18 4 -39 6q-16 2 -37.5 3.5t-41.5 1.5q-43 -2 -75 -11.5t-54.5 -39t-34 -86 t-11.5 -148.5z" />
<glyph unicode="h" horiz-adv-x="1189" d="M102 0v1462l344 66v-570q41 33 95 56q45 20 105 34q47 11 99 12q14 0 29 -1q154 -10 238 -97.5t84 -246.5v-647q0 -37 -16.5 -52.5t-55.5 -15.5h-272v666q0 131 -88 131q-45 0 -84 -15.5t-68 -33.5q-35 -23 -66 -48v-700h-344z" />
<glyph unicode="i" horiz-adv-x="548" d="M104 0v1047h345v-979q0 -37 -16.5 -52.5t-53.5 -15.5h-275zM104 1346q0 33 13.5 62.5t36 51t53.5 33.5t65 12q72 0 120 -47t48 -112q0 -66 -48 -113t-120 -47q-35 0 -65.5 12t-53 33.5t-36 51.5t-13.5 63z" />
<glyph unicode="j" horiz-adv-x="550" d="M-86 -250q113 0 151.5 28.5t38.5 110.5v1158h345v-1205q0 -147 -95.5 -233t-255.5 -96q-41 -2 -90 -3q-16 -1 -32 -1q-32 0 -62 2v239zM106 1346q0 33 13.5 62.5t36 51t53.5 33.5t65 12q72 0 120 -47t48 -112q0 -66 -48 -113t-120 -47q-35 0 -65.5 12t-53 33.5t-36 51.5 t-13.5 63z" />
<glyph unicode="k" horiz-adv-x="1146" d="M102 0v1462l344 66v-815l281 334h385l-371 -422l383 -564q14 -23 4 -42t-38 -19h-353l-229 383l-62 -64v-319h-344z" />
<glyph unicode="l" horiz-adv-x="645" d="M102 330v1132l344 66v-1159q0 -59 28 -85t87 -32q27 -2 37 -2h37v-182q0 -37 -16.5 -51.5t-53.5 -16.5h-125q-82 0 -145.5 26.5t-106.5 71.5t-64.5 104.5t-21.5 127.5z" />
<glyph unicode="m" horiz-adv-x="1765" d="M102 0v1047h344v-107q45 33 97 59q43 23 98 41.5t113 18.5q86 0 149.5 -31t91.5 -108q59 55 155.5 95t207.5 44h11q79 -1 135 -27q60 -28 96 -76.5t53.5 -112t17.5 -128.5v-647q0 -37 -17.5 -52.5t-56.5 -15.5h-270v676q-1 66 -21 94q-18 25 -60 25h-13q-16 0 -40 -7.5 t-49.5 -17.5t-49 -23.5t-37.5 -25.5v-721h-344v676q0 66 -31 94q-27 25 -67 25h-11q-23 -4 -51.5 -15.5t-50.5 -23.5q-29 -14 -56 -33v-723h-344z" />
<glyph unicode="n" horiz-adv-x="1187" d="M102 0v1047h344v-89q41 33 95 56q45 20 105 34q47 11 99 12q14 0 29 -1q154 -10 238 -97.5t84 -246.5v-647q0 -37 -16.5 -52.5t-55.5 -15.5h-272v666q0 131 -88 131q-45 0 -84 -15.5t-68 -33.5q-35 -23 -66 -48v-700h-344z" />
<glyph unicode="o" horiz-adv-x="1155" d="M51 541q0 135 38 232t108.5 160.5t168 94.5t218.5 31q123 0 220 -31t164.5 -95.5t102.5 -167.5t35 -247q0 -143 -37 -244.5t-107.5 -165t-172 -92t-232.5 -28.5q-115 0 -208 26.5t-159.5 90t-102.5 170t-36 266.5zM395 532q0 -168 43 -237.5t137 -69.5q43 0 77 13.5 t58.5 47t37 94t12.5 152.5q0 94 -13.5 150.5t-37 87.5t-55 41t-70.5 10q-96 0 -142.5 -61.5t-46.5 -227.5z" />
<glyph unicode="p" horiz-adv-x="1144" d="M102 -440v1437q80 16 168 31q76 10 169.5 20.5t187.5 10.5q82 0 166 -22.5t150.5 -80t108.5 -152.5t42 -241q0 -164 -40 -273.5t-106.5 -177t-150.5 -96t-170 -28.5q-63 0 -121 10q-31 6 -60 12v-383zM446 289l39 -13q37 -10 72 -10q49 0 85 12.5t57.5 43t31.5 81 t10 127.5q0 141 -37.5 202t-117.5 61q-35 0 -59.5 -1t-43.5 -4q-23 -2 -37 -4v-495z" />
<glyph unicode="q" horiz-adv-x="1150" d="M51 530q0 145 43 246t117 164.5t170 91t203 27.5q86 0 169 -10.5t148 -20.5q78 -14 148 -31v-1372l-344 -65v454q-23 -6 -50 -12q-23 -4 -52.5 -8t-57.5 -6q-15 -1 -29 -1q-86 0 -164 21q-90 23 -156.5 85.5t-105.5 168t-39 268.5zM410 535q0 -158 44 -217 q41 -54 137 -54h13q33 0 68 10q16 4 33 11v506q-14 0 -31 2q-14 2 -35 3t-45 1q-39 0 -73 -11.5t-58.5 -41t-38.5 -81t-14 -128.5z" />
<glyph unicode="r" horiz-adv-x="909" d="M102 0v1047h344v-107q23 33 58 59q29 23 73 41.5t103 18.5q53 0 97 -11.5t73 -23.5q35 -16 61 -35l-123 -264q-20 14 -43 27q-20 10 -48.5 18t-65.5 8q-57 0 -93 -17.5t-57 -37.5q-23 -23 -35 -53v-602q0 -37 -16 -52.5t-53 -15.5h-275z" />
<glyph unicode="s" horiz-adv-x="960" d="M47 80l59 225q80 -23 161 -41t165 -18q70 0 96.5 15t30.5 46q0 41 -37 61.5t-91 37t-117.5 35t-117.5 53.5q-56 36 -90 98q-33 59 -32 155v11q2 84 37.5 141t95 93t136.5 51.5t157 15.5q76 0 142.5 -10.5t117.5 -24.5t84 -26.5t43 -16.5l-72 -203q-43 12 -86 23 q-37 10 -80 17t-80 9h-19q-112 0 -112 -69q0 -34 34 -52q36 -20 89 -36.5t116.5 -37t118 -59t91.5 -102t37 -166.5q0 -143 -114 -230t-318 -87q-94 0 -175 14t-141 31q-70 20 -129 47z" />
<glyph unicode="t" horiz-adv-x="743" d="M16 807v240h131v276l345 66v-342h192v-240h-190v-436q0 -59 27.5 -85t86.5 -32q27 -2 49.5 -2h49.5v-184q0 -37 -16.5 -51.5t-53.5 -16.5h-166q-158 2 -241 96t-83 240v471h-131z" />
<glyph unicode="u" horiz-adv-x="1183" d="M94 367v680h344v-627q0 -55 10.5 -88t29 -49.5t44 -20.5t56.5 -2q41 2 70.5 19.5t49.5 37.5q23 23 39 52v678h344v-981q0 -66 -69 -66h-275l2 117q-33 -33 -71 -60q-35 -23 -84 -43t-109 -24q-22 -1 -42 -1q-161 0 -245 84q-94 95 -94 294z" />
<glyph unicode="v" horiz-adv-x="1103" d="M18 1047h355l164 -752l211 752h350q-90 -264 -160 -476q-31 -90 -59.5 -177t-52 -156.5t-39 -113.5t-17.5 -50q-16 -41 -46 -57.5t-75 -16.5h-309z" />
<glyph unicode="w" horiz-adv-x="1630" d="M18 1047h349l122 -730l179 730h305l143 -721l156 721h340q-74 -264 -131 -476q-25 -90 -48.5 -177t-43 -156.5t-33 -113.5t-15.5 -50q-16 -41 -45.5 -57.5t-74.5 -16.5h-281l-143 588l-146 -588h-368z" />
<glyph unicode="x" horiz-adv-x="1146" d="M41 0l332 528l-301 519h344l172 -342l160 342h333l-301 -523l307 -463q12 -23 0 -42t-40 -19h-275l-201 350l-184 -350h-346z" />
<glyph unicode="y" horiz-adv-x="1142" d="M14 1047h369l190 -678l191 678h360l-432 -1260q-53 -156 -185 -215t-325 -59h-33.5t-42.5 2v235q61 0 105.5 6t75 20.5t52 39t38.5 63.5q10 27 20.5 59.5t20.5 63.5z" />
<glyph unicode="z" horiz-adv-x="1021" d="M59 0v262l504 545h-479v240h862v-244l-506 -551h525v-184q0 -37 -16.5 -52.5t-53.5 -15.5h-836z" />
<glyph unicode="{" horiz-adv-x="753" d="M-16 485v213q66 0 107.5 9.5t65 32t33 60.5t9.5 95v274q0 66 6 126.5t29.5 105.5t71.5 71.5t134 26.5h178v-196h-17h-8t-8 -1.5t-18 -1.5q-117 -6 -116 -124v-396q0 -33 -11.5 -65.5t-35 -58t-59.5 -41t-85 -15.5v-12q98 0 144.5 -56.5t46.5 -132.5v-381q0 -119 116 -124 q12 0 17.5 -1.5t8.5 -1.5h8h17v-208h-178q-86 0 -134 26.5t-71.5 71.5t-29.5 105.5t-6 125.5v277q0 59 -9.5 97t-33 60.5t-65.5 30.5t-107 8z" />
<glyph unicode="|" horiz-adv-x="440" d="M98 0v1536h252v-1473q0 -63 -65 -63h-187z" />
<glyph unicode="}" horiz-adv-x="749" d="M123 -109h17h8.5t8.5 1.5t17 1.5q117 6 117 124v381q0 76 46 132.5t144 56.5v12q-49 0 -85 15.5t-59.5 41t-34.5 58.5t-11 65v396q0 119 -117 124q-12 0 -17 1.5t-8.5 1.5h-8.5h-17v196h178q86 0 134 -26.5t71.5 -71.5t30 -105.5t6.5 -126.5v-274q0 -57 9 -95t32.5 -60.5 t65.5 -32t108 -9.5v-213q-66 0 -108 -8t-65.5 -30.5t-32.5 -60.5t-9 -97v-277q0 -66 -6.5 -126t-30 -105t-71.5 -71.5t-134 -26.5h-178v208z" />
<glyph unicode="~" horiz-adv-x="1177" d="M90 625q35 55 82 98q39 37 93 68.5t120 31.5q59 0 113.5 -21.5t103.5 -48t94 -48t86 -21.5q39 0 71 13.5t54 29.5q27 18 47 43l113 -121q-31 -51 -70 -88q-35 -33 -84 -59.5t-112 -26.5q-70 0 -130.5 21.5t-114.5 48t-101 48t-90 21.5t-77 -16t-57 -37q-27 -23 -47 -53 q-23 29 -43 51q-16 20 -31.5 39t-19.5 27z" />
<glyph unicode="&#xa1;" horiz-adv-x="538" d="M102 -393v942q0 37 16.5 52t53.5 15h274v-1009h-344zM106 899q0 66 48 113t120 47q35 0 66 -12.5t53.5 -34t35.5 -51t13 -62.5t-13 -62.5t-35.5 -51t-53.5 -34t-66 -12.5q-72 0 -120 47.5t-48 112.5z" />
<glyph unicode="&#xa2;" horiz-adv-x="985" d="M51 537q0 242 116 367.5t306 148.5v159h252v-170q47 -10 86 -22t68 -23q35 -12 61 -26l-100 -215q-39 14 -80 24q-35 10 -79 16.5t-85 2.5q-100 -8 -151.5 -68.5t-51.5 -202.5q0 -80 15.5 -133t44 -83.5t69.5 -43t94 -14.5q53 -4 95.5 2t74.5 14q37 8 68 23l88 -213 q-27 -14 -59 -29q-29 -12 -69 -25.5t-89 -23.5v-131q0 -63 -66 -64h-186v185q-92 10 -170 43t-133 97.5t-87 163.5t-32 241z" />
<glyph unicode="&#xa3;" horiz-adv-x="1181" d="M63 0v250q37 8 68 33q25 23 46.5 61.5t21.5 106.5v165h-133v250h133v189q0 104 40 178t104.5 121t148 68.5t170.5 21.5q76 0 147.5 -10.5t126.5 -20.5q66 -14 123 -31l-80 -247q-49 14 -100 24q-43 10 -95.5 15.5t-99.5 3.5q-74 -4 -106.5 -58.5t-32.5 -167.5v-86h350 v-250h-350v-165q0 -53 -13.5 -90t-30 -61t-31.5 -35t-19 -13h665v-186q0 -66 -69 -66h-984z" />
<glyph unicode="&#xa4;" horiz-adv-x="815" d="M76 614l45 50q16 18 31.5 33.5l19.5 19.5l2 2q-23 68 -22 158q0 92 28 159l-96 97l80 79l86 -79q72 59 168 59q90 0 162 -53l75 75l80 -79q-16 -18 -33 -35q-14 -14 -27 -29.5t-24 -26.5q16 -35 25.5 -75.5t9.5 -91.5q0 -98 -29 -168l95 -93l-80 -79q-14 12 -29 24 q-12 10 -26.5 23.5t-24.5 23.5q-37 -35 -82 -51t-92 -16q-53 0 -100.5 16t-84.5 55l-77 -77zM295 877q0 -92 32.5 -131t92.5 -39q53 0 88 38.5t35 131.5q0 159 -123 159q-125 0 -125 -159z" />
<glyph unicode="&#xa5;" horiz-adv-x="1218" d="M33 1434h375l198 -650l217 650h365l-281 -660h172v-237h-272l-27 -64v-20h299v-238h-299v-152q0 -63 -65 -63h-291v215h-305v238h305v16l-29 68h-276v237h180z" />
<glyph unicode="&#xa6;" horiz-adv-x="462" d="M111 0v719h251v-656q0 -63 -65 -63h-186zM111 848v688h251v-688h-251z" />
<glyph unicode="&#xa7;" horiz-adv-x="1112" d="M57 698q4 49 25.5 91t52.5 75t64.5 56.5t62.5 37.5q-47 27 -81 72t-34 119q0 92 37 150.5t100.5 92t148.5 45t183 7.5q59 -4 124 -11.5t118 -17.5q61 -10 119 -22l-55 -224q-4 2 -39 11.5t-82 18.5t-98.5 17.5t-88.5 8.5q-109 0 -116 -68q-2 -18 2 -35.5t26.5 -38 t67.5 -45t123 -55.5q90 -35 155.5 -69.5t106.5 -76.5t58.5 -92.5t13.5 -115.5q-4 -51 -22.5 -94t-44.5 -77t-55.5 -58.5t-56.5 -43.5q55 -41 80 -89t25 -113q0 -72 -32 -133.5t-92 -107.5t-146 -70.5t-195 -20.5q-70 2 -144.5 15t-140.5 30q-76 18 -147 41l78 235 q45 -18 96 -32q43 -12 95 -23.5t106 -13.5q86 -6 133 17.5t47 88.5q0 27 -25.5 51.5t-65.5 46t-87 40t-88 34.5q-66 25 -125.5 49.5t-103.5 61.5t-66.5 92t-16.5 143zM375 688q4 -31 21.5 -52.5t45 -37.5t63.5 -30.5t73 -30.5q25 -12 41 -19.5t40 -21.5q12 8 29 22t31 31.5 t24.5 36t10.5 37.5q0 29 -18.5 53t-48.5 45.5t-66.5 39t-75.5 34.5l-78 34q-35 -16 -65.5 -49t-26.5 -92z" />
<glyph unicode="&#xa8;" horiz-adv-x="913" d="M113 1270q0 55 41 95t100 40t99 -40t40 -95q0 -53 -40 -93t-99 -40t-100 40t-41 93zM516 1270q0 55 41 95t100 40t99.5 -40t40.5 -95q0 -53 -40.5 -93t-99.5 -40t-100 40t-41 93z" />
<glyph unicode="&#xa9;" horiz-adv-x="1638" d="M94 717q0 154 57.5 287t157 231t231.5 154.5t281 56.5q147 0 279.5 -56.5t232 -154.5t156.5 -231t57 -287t-57 -288t-156.5 -232.5t-231.5 -154.5t-280 -56q-150 0 -281.5 56t-231 154.5t-157 232.5t-57.5 288zM305 717q0 -115 40 -215.5t110.5 -174t164 -116.5 t201.5 -43q106 0 199.5 43t163 116.5t110.5 174t41 215.5t-41 215t-110.5 174t-162.5 116t-200 42q-109 0 -202 -42t-163.5 -116t-110.5 -174.5t-40 -214.5zM487 725q0 205 100.5 302t262.5 97q43 0 82 -8t67 -18q35 -10 66 -25l-47 -158q-23 12 -45 21q-20 8 -47 12t-56 2 q-190 -10 -190 -225q0 -125 48 -176t146 -51q31 0 57.5 4t47.5 10q23 6 41 14l45 -157q-29 -16 -64 -29q-29 -10 -69.5 -18.5t-89.5 -8.5q-78 0 -142.5 18.5t-111.5 65.5t-74 127t-27 201z" />
<glyph unicode="&#xaa;" horiz-adv-x="614" d="M139 1176q0 59 35 90.5t94 38.5q29 4 48.5 3t31.5 -1v18q0 41 -65 41q-20 0 -37 -2t-31 -6q-16 -4 -31 -8l-18 75q20 6 45 13q20 4 46.5 7t55.5 5q29 0 57.5 -5t52 -19.5t38 -39t14.5 -59.5v-254q-25 -6 -51 -10q-23 -4 -52.5 -7t-62.5 -3q-84 -2 -127 31.5t-43 91.5z M262 1182q0 -23 17.5 -32t42.5 -9q16 0 20 2t6 4v78q-4 2 -12 2h-14.5t-18.5 -2q-41 -12 -41 -43z" />
<glyph unicode="&#xab;" horiz-adv-x="1110" d="M37 535l342 524l231 -127l-260 -397l260 -390l-235 -133zM512 535l342 524l231 -127l-260 -397l260 -390l-235 -133z" />
<glyph unicode="&#xac;" horiz-adv-x="825" d="M27 471v225h768v-434h-250v209h-518z" />
<glyph unicode="&#xad;" horiz-adv-x="792" d="M96 446v193h600v-193h-600z" />
<glyph unicode="&#xae;" horiz-adv-x="1638" d="M94 717q0 154 57.5 287t157 231t231.5 154.5t281 56.5q147 0 279.5 -56.5t232 -154.5t156.5 -231t57 -287t-57 -288t-156.5 -232.5t-231.5 -154.5t-280 -56q-150 0 -281.5 56t-231 154.5t-157 232.5t-57.5 288zM305 717q0 -115 40 -215.5t110.5 -174t164 -116.5 t201.5 -43q106 0 199.5 43t163 116.5t110.5 174t41 215.5t-41 215t-110.5 174t-162.5 116t-200 42q-109 0 -202 -42t-163.5 -116t-110.5 -174.5t-40 -214.5zM555 322v782q49 2 100 6q43 2 91.5 4t89.5 2q135 0 203.5 -56t68.5 -181q0 -45 -13.5 -85t-33 -73t-44 -56.5 t-46.5 -33.5q14 -25 56 -101.5t97 -167.5q10 -16 2 -28t-28 -12h-156l-129 258q-8 18 -29 18h-20t-2 1t-4 2t-25 1v-244q0 -37 -39 -36h-139zM735 770h17q8 0 19.5 -1t27.5 1q31 0 55.5 4t40.5 14.5t24.5 29t8.5 50.5q-4 100 -113 99q-23 -2 -37 -2t-24 -2t-19 -2v-191z" />
<glyph unicode="&#xaf;" horiz-adv-x="661" d="M98 1196v180h457v-180h-457z" />
<glyph unicode="&#xb0;" horiz-adv-x="708" d="M86 1167q0 55 21.5 103.5t59.5 85.5t88 57.5t107 20.5t108.5 -20.5t89.5 -57.5t59.5 -85t21.5 -104q0 -55 -21.5 -103t-59.5 -84t-89 -56.5t-109 -20.5q-57 0 -107 20.5t-88 56.5t-59.5 84t-21.5 103zM270 1159q0 -49 28 -75.5t69 -26.5t68.5 26.5t27.5 75.5 q0 47 -23.5 77t-72.5 30q-51 0 -74 -31t-23 -76z" />
<glyph unicode="&#xb1;" horiz-adv-x="1142" d="M63 0v238h1008v-238h-1008zM63 510v235h394v302h252v-302h362v-235h-362v-166q0 -63 -66 -63h-186v229h-394z" />
<glyph unicode="&#xb2;" horiz-adv-x="471" d="M90 1042v68q0 45 26.5 74.5t58.5 52.5t58.5 43t26.5 45q0 12 -13.5 21.5t-41.5 9.5q-16 0 -31.5 -3t-28.5 -7q-14 -6 -26 -11l-21 84q16 6 39 15q18 4 42 9t52 5q68 0 109 -29.5t41 -91.5q0 -49 -24.5 -78.5t-53.5 -48t-53.5 -32t-24.5 -27.5h160v-80q0 -18 -18 -19h-277 z" />
<glyph unicode="&#xb3;" horiz-adv-x="471" d="M125 1055l14 92q10 -4 25 -6q10 -2 25.5 -3t31.5 -1q23 0 40.5 7t17.5 30t-12.5 30.5t-41.5 7.5h-43v88h45q23 0 37.5 3.5t14.5 25.5q0 33 -46 33q-12 0 -26 -3t-29 -7q-16 -4 -31 -9l-18 78q23 6 45 13q20 4 43 9t43 5q63 0 95 -25.5t36 -68.5q2 -49 -22.5 -71.5 t-32.5 -25.5q2 -2 13 -7t21.5 -16t19.5 -30.5t9 -46.5q0 -63 -44 -91t-107 -28q-23 0 -45.5 2t-38.5 7q-20 4 -39 8z" />
<glyph unicode="&#xb4;" horiz-adv-x="675" d="M109 1282l346 209l104 -203l-362 -178z" />
<glyph unicode="&#xb5;" horiz-adv-x="1185" d="M94 -428v1475h344v-627q0 -55 10.5 -88t29 -49.5t44 -20.5t56.5 -2q41 2 70.5 19.5t49.5 37.5q23 23 39 52v678h344v-981q0 -66 -69 -66h-275l2 117q-33 -33 -71 -60q-35 -23 -84 -43t-109 -24h-37v-352q0 -66 -69 -66h-275z" />
<glyph unicode="&#xb6;" horiz-adv-x="1257" d="M59 1049q0 104 29 176.5t80 119t119.5 68t146.5 21.5q55 0 117.5 -1t116.5 -1h125v-1432h-185q-37 0 -53 15.5t-16 52.5v563q-16 -2 -36 -3t-50 -1q-78 0 -149 21.5t-125 70.5t-87 130t-33 200zM920 0v1434h249v-1371q0 -35 -28.5 -49t-63.5 -14h-157z" />
<glyph unicode="&#xb7;" horiz-adv-x="403" d="M51 582q0 66 45 110.5t109 44.5q66 0 109.5 -45t43.5 -110q0 -63 -43.5 -108.5t-109.5 -45.5q-63 0 -108.5 45t-45.5 109z" />
<glyph unicode="&#xb8;" horiz-adv-x="512" d="M72 -379l51 135q10 -6 22 -10q10 -4 23.5 -6t26.5 -2q53 0 55 47q2 27 -21.5 39t-62.5 12l-25 4q0 4 6.5 32t12.5 62q8 39 16 89l174 -17q-2 -18 -6 -35q-6 -31 -10 -51q57 -10 84.5 -50t27.5 -87q0 -90 -51 -146.5t-164 -52.5q-27 0 -55.5 6.5t-50.5 12.5q-27 8 -53 18z " />
<glyph unicode="&#xb9;" horiz-adv-x="471" d="M131 1413l217 33v-301h82v-86q0 -16 -18 -17h-275v103h90v194l-86 -12z" />
<glyph unicode="&#xba;" horiz-adv-x="616" d="M131 1255q0 98 53 143.5t125 45.5t124 -45t52 -144q0 -55 -15 -93t-41 -62.5t-57.5 -34.5t-62.5 -10q-72 0 -125 45t-53 155zM254 1255q0 -51 14.5 -72.5t40.5 -21.5q27 0 41.5 21.5t14.5 72.5q-1 84 -56 84t-55 -84z" />
<glyph unicode="&#xbb;" horiz-adv-x="1112" d="M37 145l260 390l-260 397l231 127l342 -524l-338 -523zM512 145l260 390l-260 397l231 127l342 -524l-337 -523z" />
<glyph unicode="&#xbc;" horiz-adv-x="1634" d="M45 1376l424 68v-576h170v-170q0 -35 -37 -34h-543v204h168v322l-147 -19zM356 0l738 1434h254l-707 -1371q-33 -63 -96 -63h-189zM907 131v182l377 449h236v-426h86v-205h-86v-98q0 -33 -37 -33h-199v131h-377zM1161 336h123v153z" />
<glyph unicode="&#xbd;" horiz-adv-x="1687" d="M45 1376l424 68v-576h170v-170q0 -35 -37 -34h-543v204h168v322l-147 -19zM360 0l738 1434h254l-707 -1371q-33 -63 -96 -63h-189zM1038 92q-2 61 21.5 108.5t59.5 84.5t77 65.5t77 55t59.5 51t23.5 55.5q0 37 -22.5 58.5t-78.5 23.5q-27 2 -55.5 -3t-50.5 -11 q-29 -8 -55 -19l-33 162q35 14 78 27q37 10 85 18t105 8q137 0 215 -56t78 -175q0 -63 -20.5 -108.5t-51 -77t-67.5 -52t-68 -38t-51.5 -33t-20.5 -33.5h295v-170q0 -33 -36 -33h-562z" />
<glyph unicode="&#xbe;" horiz-adv-x="1626" d="M188 694l25 162q25 -6 51 -10q23 -4 51.5 -6t59.5 -2q45 0 79.5 17t34.5 69q0 47 -26.5 62t-79.5 15q-4 0 -18.5 -1t-28.5 -1q-18 -2 -37 -2v152l88 2q88 0 88 74q0 57 -82 57q-29 0 -57.5 -5t-50.5 -11q-27 -8 -52 -15l-32 144q43 14 88 26q37 10 81 18.5t83 8.5 q127 0 191.5 -49t68.5 -133q2 -49 -11.5 -84t-32 -56.5t-36 -33t-23.5 -13.5q4 -2 22.5 -10t39 -28.5t37 -55.5t16.5 -88q0 -61 -21.5 -105t-60.5 -72t-92 -41t-115 -13q-43 0 -88 5t-80 9q-41 6 -80 14zM377 0l737 1434h254l-706 -1371q-33 -63 -97 -63h-188zM907 131v182 l377 449h221v-426h86v-205h-86v-98q0 -33 -37 -33h-184v131h-377zM1135 336h149v174z" />
<glyph unicode="&#xbf;" horiz-adv-x="1050" d="M63 -2q4 94 35 158.5t75 109.5t93 76t91 57.5t70 55t28 69.5v94h344v-88q0 -84 -28 -142t-70 -100t-92 -74t-93 -62.5t-72.5 -65.5t-33.5 -84q-4 -47 11 -76.5t45 -47t69.5 -24t87.5 -6.5q41 0 88 6.5t88 14.5q47 8 92 20l29 -239q-59 -16 -119 -29q-51 -10 -112.5 -19.5 t-115.5 -9.5q-117 0 -212 27t-162.5 79t-103.5 127t-32 173zM463 899q0 66 48 113t120 47q35 0 65.5 -12.5t53 -34t36 -51t13.5 -62.5t-13.5 -62.5t-36 -51t-53 -34t-65.5 -12.5q-72 0 -120 47.5t-48 112.5z" />
<glyph unicode="&#xc0;" horiz-adv-x="1353" d="M47 0l465 1434h403l218 -684q41 -129 79.5 -251t69.5 -220q37 -114 70 -216q16 -63 -58 -63h-329l-80 319h-363l-92 -319h-383zM496 1675l104 203l346 -209l-88 -172zM580 563h258l-131 524z" />
<glyph unicode="&#xc1;" horiz-adv-x="1353" d="M47 0l465 1434h403l218 -684q41 -129 79.5 -251t69.5 -220q37 -114 70 -216q16 -63 -58 -63h-329l-80 319h-363l-92 -319h-383zM451 1669l346 209l104 -203l-362 -178zM580 563h258l-131 524z" />
<glyph unicode="&#xc2;" horiz-adv-x="1353" d="M47 0l465 1434h403l218 -684q41 -129 79.5 -251t69.5 -220q37 -114 70 -216q16 -63 -58 -63h-329l-80 319h-363l-92 -319h-383zM393 1679l314 181l317 -181l-76 -161l-241 116l-238 -110zM580 563h258l-131 524z" />
<glyph unicode="&#xc3;" horiz-adv-x="1353" d="M47 0l465 1434h403l218 -684q41 -129 79.5 -251t69.5 -220q37 -114 70 -216q16 -63 -58 -63h-329l-80 319h-363l-92 -319h-383zM399 1700q31 35 64 61q29 23 62.5 42.5t68.5 19.5q31 0 60.5 -11.5t57 -25.5t51 -25.5t46.5 -11.5t42 7t32 18q14 10 26 24l84 -158 q-29 -29 -59 -51q-27 -18 -59.5 -33.5t-65.5 -15.5q-37 0 -65.5 12.5t-53 27.5t-47 27.5t-45.5 12.5t-44.5 -11.5t-37.5 -23.5q-20 -14 -37 -33zM580 563h258l-131 524z" />
<glyph unicode="&#xc4;" horiz-adv-x="1353" d="M47 0l465 1434h403l218 -684q41 -129 79.5 -251t69.5 -220q37 -114 70 -216q16 -63 -58 -63h-329l-80 319h-363l-92 -319h-383zM369 1657q0 55 41 95t100 40t99 -40t40 -95q0 -53 -40 -93t-99 -40t-100 40t-41 93zM580 563h258l-131 524zM772 1657q0 55 41 95t100 40 t99.5 -40t40.5 -95q0 -53 -40.5 -93t-99.5 -40t-100 40t-41 93z" />
<glyph unicode="&#xc5;" horiz-adv-x="1353" d="M47 0l465 1434h403l218 -684q41 -129 79.5 -251t69.5 -220q37 -114 70 -216q16 -63 -58 -63h-329l-80 319h-363l-92 -319h-383zM532 1667q0 72 51.5 122t129.5 50q74 0 126 -50t52 -122q0 -35 -14.5 -66.5t-38 -55t-56 -37t-69.5 -13.5q-78 0 -129.5 50t-51.5 122z M580 563h258l-131 524zM666 1667q0 -29 13 -41t36 -12t37 12t14 41q0 23 -12.5 38t-38.5 15q-27 0 -38 -15t-11 -38z" />
<glyph unicode="&#xc6;" horiz-adv-x="1828" d="M-80 0l932 1434h899v-242h-543v-330h494v-241h-494v-369h553v-186q0 -66 -69 -66h-840v319h-354l-197 -319h-381zM635 563h217v381z" />
<glyph unicode="&#xc7;" horiz-adv-x="1179" d="M66 735q0 186 48 321.5t133 222.5t201.5 128t253.5 41q78 0 150 -9t125 -20q63 -12 119 -26l-49 -238q-49 12 -101 21q-43 8 -93 13t-93 3q-76 -6 -138.5 -30.5t-106.5 -78t-68.5 -140.5t-24.5 -216q0 -135 21.5 -224t63.5 -142.5t104.5 -77t144.5 -29.5q47 -4 101 1 t101 13q53 8 107 21l39 -256q-66 -14 -135 -23q-61 -10 -138 -16t-155 -6l-12 -68q57 -10 84.5 -50t27.5 -87q0 -90 -51 -146.5t-164 -52.5q-27 0 -55.5 6.5t-50.5 12.5q-27 8 -54 18l52 135q10 -6 22 -10q10 -4 23.5 -6t25.5 -2q53 0 56 47q2 27 -21.5 39t-62.5 12l-25 4 l31 162q-96 20 -177 69.5t-138.5 136.5t-89 216t-31.5 311z" />
<glyph unicode="&#xc8;" horiz-adv-x="1099" d="M123 0v1434h899v-242h-543v-330h494v-241h-494v-369h553v-186q0 -66 -69 -66h-840zM350 1675l105 203l346 -209l-88 -172z" />
<glyph unicode="&#xc9;" horiz-adv-x="1099" d="M123 0v1434h899v-242h-543v-330h494v-241h-494v-369h553v-186q0 -66 -69 -66h-840zM324 1669l346 209l104 -203l-362 -178z" />
<glyph unicode="&#xca;" horiz-adv-x="1099" d="M123 0v1434h899v-242h-543v-330h494v-241h-494v-369h553v-186q0 -66 -69 -66h-840zM262 1679l313 181l318 -181l-76 -161l-242 116l-237 -110z" />
<glyph unicode="&#xcb;" horiz-adv-x="1099" d="M123 0v1434h899v-242h-543v-330h494v-241h-494v-369h553v-186q0 -66 -69 -66h-840zM229 1657q0 55 41 95t101 40q59 0 99 -40t40 -95q0 -53 -40 -93t-99 -40t-100.5 40t-41.5 93zM633 1657q0 55 41 95t100 40t99 -40t40 -95q0 -53 -40 -93t-99 -40t-100 40t-41 93z" />
<glyph unicode="&#xcc;" horiz-adv-x="598" d="M86 1675l104 203l347 -209l-88 -172zM121 0v1434h356v-1371q0 -63 -65 -63h-291z" />
<glyph unicode="&#xcd;" horiz-adv-x="598" d="M74 1669l346 209l104 -203l-362 -178zM121 0v1434h356v-1371q0 -63 -65 -63h-291z" />
<glyph unicode="&#xce;" horiz-adv-x="598" d="M-16 1679l313 181l317 -181l-75 -161l-242 116l-238 -110zM121 0v1434h356v-1371q0 -63 -65 -63h-291z" />
<glyph unicode="&#xcf;" horiz-adv-x="598" d="M-43 1657q0 55 41 95t100 40t99.5 -40t40.5 -95q0 -53 -40.5 -93t-99.5 -40t-100 40t-41 93zM121 0v1434h356v-1371q0 -63 -65 -63h-291zM360 1657q0 55 41 95t101 40q59 0 99 -40t40 -95q0 -53 -40 -93t-99 -40t-100.5 40t-41.5 93z" />
<glyph unicode="&#xd0;" horiz-adv-x="1335" d="M39 621v237h84v567q72 4 153 11q72 4 164 8t197 4q150 0 267.5 -39t198.5 -126t123 -225t42 -335t-45 -336t-129 -228t-202 -130t-265 -41q-111 0 -202 2t-159 6q-80 4 -143 10v615h-84zM479 260q23 -2 47 -4q23 -2 48.5 -3t52.5 -1q59 0 111.5 19.5t90 73.5t59 148.5 t21.5 241.5q0 150 -22.5 241t-59 140t-85 64.5t-99.5 15.5q-29 0 -58.5 -1t-52.5 -3q-27 -2 -53 -2v-332h111v-237h-111v-361z" />
<glyph unicode="&#xd1;" horiz-adv-x="1363" d="M125 0v1434h399l371 -816l-14 816h360v-1371q0 -35 -14.5 -49t-48.5 -14h-304l-405 887l14 -887h-358zM385 1724q31 35 64 62q29 23 62.5 42t68.5 19q31 0 60.5 -11t57 -25.5t51 -25.5t46.5 -11t42 7t31 17q14 10 27 25l84 -158q-29 -29 -59 -51q-27 -18 -60 -33.5 t-65 -15.5q-37 0 -66 12t-53.5 27.5t-47 28t-44.5 12.5q-23 0 -44.5 -11.5t-37.5 -23.5q-20 -14 -37 -33z" />
<glyph unicode="&#xd2;" horiz-adv-x="1339" d="M66 739q0 352 145.5 530.5t458.5 178.5q162 0 277.5 -45t187 -136t105.5 -230.5t34 -327.5q0 -193 -37 -329t-111.5 -223t-191.5 -127t-277 -40q-162 0 -274.5 41t-183 131t-102 232.5t-31.5 344.5zM424 729q0 -129 10 -217t37 -143.5t74 -80t121 -24.5q70 0 119 19.5 t79.5 72t45 142.5t14.5 233t-15.5 231.5t-45 137.5t-75 65.5t-104.5 16.5q-76 0 -126 -22.5t-79.5 -76t-42 -139.5t-12.5 -215zM461 1675l104 203l346 -209l-88 -172z" />
<glyph unicode="&#xd3;" horiz-adv-x="1339" d="M66 739q0 352 145.5 530.5t458.5 178.5q162 0 277.5 -45t187 -136t105.5 -230.5t34 -327.5q0 -193 -37 -329t-111.5 -223t-191.5 -127t-277 -40q-162 0 -274.5 41t-183 131t-102 232.5t-31.5 344.5zM424 729q0 -129 10 -217t37 -143.5t74 -80t121 -24.5q70 0 119 19.5 t79.5 72t45 142.5t14.5 233t-15.5 231.5t-45 137.5t-75 65.5t-104.5 16.5q-76 0 -126 -22.5t-79.5 -76t-42 -139.5t-12.5 -215zM444 1669l347 209l104 -203l-363 -178z" />
<glyph unicode="&#xd4;" horiz-adv-x="1339" d="M66 739q0 352 145.5 530.5t458.5 178.5q162 0 277.5 -45t187 -136t105.5 -230.5t34 -327.5q0 -193 -37 -329t-111.5 -223t-191.5 -127t-277 -40q-162 0 -274.5 41t-183 131t-102 232.5t-31.5 344.5zM354 1679l314 181l317 -181l-76 -161l-241 116l-238 -110zM424 729 q0 -129 10 -217t37 -143.5t74 -80t121 -24.5q70 0 119 19.5t79.5 72t45 142.5t14.5 233t-15.5 231.5t-45 137.5t-75 65.5t-104.5 16.5q-76 0 -126 -22.5t-79.5 -76t-42 -139.5t-12.5 -215z" />
<glyph unicode="&#xd5;" horiz-adv-x="1339" d="M66 739q0 352 145.5 530.5t458.5 178.5q162 0 277.5 -45t187 -136t105.5 -230.5t34 -327.5q0 -193 -37 -329t-111.5 -223t-191.5 -127t-277 -40q-162 0 -274.5 41t-183 131t-102 232.5t-31.5 344.5zM373 1700q31 35 63 61q29 23 62.5 42.5t68.5 19.5q31 0 60.5 -11.5 t57.5 -25.5t51.5 -25.5t45.5 -11.5q23 0 42.5 7t31.5 18q14 10 27 24l84 -158q-29 -29 -60 -51q-27 -18 -59.5 -33.5t-65.5 -15.5q-37 0 -65.5 12.5t-53 27.5t-47 27.5t-45.5 12.5t-44 -11.5t-38 -23.5q-20 -14 -36 -33zM424 729q0 -129 10 -217t37 -143.5t74 -80t121 -24.5 q70 0 119 19.5t79.5 72t45 142.5t14.5 233t-15.5 231.5t-45 137.5t-75 65.5t-104.5 16.5q-76 0 -126 -22.5t-79.5 -76t-42 -139.5t-12.5 -215z" />
<glyph unicode="&#xd6;" horiz-adv-x="1339" d="M66 739q0 352 145.5 530.5t458.5 178.5q162 0 277.5 -45t187 -136t105.5 -230.5t34 -327.5q0 -193 -37 -329t-111.5 -223t-191.5 -127t-277 -40q-162 0 -274.5 41t-183 131t-102 232.5t-31.5 344.5zM328 1657q0 55 41 95t100 40t99 -40t40 -95q0 -53 -40 -93t-99 -40 t-100 40t-41 93zM424 729q0 -129 10 -217t37 -143.5t74 -80t121 -24.5q70 0 119 19.5t79.5 72t45 142.5t14.5 233t-15.5 231.5t-45 137.5t-75 65.5t-104.5 16.5q-76 0 -126 -22.5t-79.5 -76t-42 -139.5t-12.5 -215zM731 1657q0 55 41 95t100 40t99.5 -40t40.5 -95 q0 -53 -40.5 -93t-99.5 -40t-100 40t-41 93z" />
<glyph unicode="&#xd7;" horiz-adv-x="1112" d="M68 227l309 308l-297 292l188 191l297 -295l299 297l187 -184l-301 -299l305 -308l-187 -190l-305 309l-309 -307z" />
<glyph unicode="&#xd8;" horiz-adv-x="1339" d="M49 0l148 225q-63 94 -97 222t-34 292q0 352 145 530.5t459 178.5q164 0 291 -70l36 56h287l-143 -215q133 -188 133 -510q0 -193 -37 -329t-111.5 -223t-191.5 -127t-277 -40q-164 0 -284 69q-23 -33 -46.5 -46t-56.5 -13h-221zM424 646q0 -38 4 -73l383 580 q-27 16 -58.5 22.5t-68.5 6.5q-76 0 -126 -22.5t-79.5 -76t-42 -139.5t-12.5 -215v-83zM530 297q47 -33 136 -33q70 0 119 19.5t79.5 72t45 142.5t14.5 233q0 84 -6 152z" />
<glyph unicode="&#xd9;" horiz-adv-x="1345" d="M113 571v863h356v-934q0 -51 9 -95.5t33 -76t64.5 -49t104.5 -17.5q63 0 102 18.5t60.5 50t29 72.5t7.5 84v947h356v-873q0 -293 -138.5 -433t-430.5 -140q-291 0 -422 149.5t-131 433.5zM446 1675l105 203l346 -209l-88 -172z" />
<glyph unicode="&#xda;" horiz-adv-x="1345" d="M113 571v863h356v-934q0 -51 9 -95.5t33 -76t64.5 -49t104.5 -17.5q63 0 102 18.5t60.5 50t29 72.5t7.5 84v947h356v-873q0 -293 -138.5 -433t-430.5 -140q-291 0 -422 149.5t-131 433.5zM446 1669l347 209l104 -203l-362 -178z" />
<glyph unicode="&#xdb;" horiz-adv-x="1345" d="M113 571v863h356v-934q0 -51 9 -95.5t33 -76t64.5 -49t104.5 -17.5q63 0 102 18.5t60.5 50t29 72.5t7.5 84v947h356v-873q0 -293 -138.5 -433t-430.5 -140q-291 0 -422 149.5t-131 433.5zM356 1679l314 181l317 -181l-76 -161l-241 116l-238 -110z" />
<glyph unicode="&#xdc;" horiz-adv-x="1345" d="M113 571v863h356v-934q0 -51 9 -95.5t33 -76t64.5 -49t104.5 -17.5q63 0 102 18.5t60.5 50t29 72.5t7.5 84v947h356v-873q0 -293 -138.5 -433t-430.5 -140q-291 0 -422 149.5t-131 433.5zM330 1657q0 55 41 95t100 40t99 -40t40 -95q0 -53 -40 -93t-99 -40t-100 40 t-41 93zM733 1657q0 55 41 95t100 40t99.5 -40t40.5 -95q0 -53 -40.5 -93t-99.5 -40t-100 40t-41 93z" />
<glyph unicode="&#xdd;" horiz-adv-x="1218" d="M33 1434h375l198 -650l217 650h365l-408 -961v-410q0 -63 -65 -63h-291v469zM383 1669l346 209l105 -203l-363 -178z" />
<glyph unicode="&#xde;" horiz-adv-x="1134" d="M102 0v1434h347v-232q75 6 167 6q248 0 373 -107.5t125 -348.5q0 -135 -43 -226.5t-114.5 -149t-166 -82t-196.5 -24.5q-41 0 -68.5 1t-76.5 5v-208q0 -37 -16.5 -52.5t-53.5 -15.5h-277zM449 524q14 -2 30 -2q14 -2 33.5 -2h46.5q100 0 152.5 53.5t52.5 174.5 q0 102 -45 155t-144 53q-35 0 -58 -1t-40 -3q-18 -2 -28 -2v-426z" />
<glyph unicode="&#xdf;" horiz-adv-x="1443" d="M-6 809v238h172v73q0 100 42 178t112.5 132.5t166 84t201.5 33.5q86 4 174 -12t158 -58t112 -114t33 -180q-6 -96 -44 -150.5t-80 -89.5t-75.5 -63.5t-33.5 -73.5q0 -37 33.5 -60.5t84 -46t109 -50t108.5 -70.5t83.5 -108.5t33.5 -166.5q0 -68 -27.5 -126t-79.5 -100 t-128 -66.5t-174 -24.5q-92 0 -163 13t-118 30q-57 18 -98 43l61 231q41 -12 80 -22q35 -10 75 -18.5t75 -10.5q76 -6 114.5 14.5t42.5 77.5q0 45 -31.5 70.5t-79.5 44t-104.5 37t-104.5 53.5t-80 91t-30 149q2 113 36 172t75 91.5t77 52t44 54.5q12 59 -27 94t-125 35 q-80 0 -128 -51t-48 -129v-1042q0 -37 -16.5 -52.5t-52.5 -15.5h-283v809h-172z" />
<glyph unicode="&#xe0;" horiz-adv-x="1083" d="M51 322q0 158 93.5 239.5t246.5 93.5q41 4 86 5.5t84 3.5q45 2 88 2v36q0 57 -28.5 85t-110.5 28q-53 0 -110.5 -7t-104.5 -17q-55 -10 -111 -23l-47 209q70 20 146 39q66 16 143.5 28.5t155.5 14.5q82 2 156.5 -14.5t131 -55.5t89 -103.5t32.5 -158.5v-676 q-57 -16 -125 -31q-59 -12 -136 -22t-167 -10q-133 -2 -229 21.5t-158.5 66.5t-93.5 105.5t-31 140.5zM315 1288l105 203l346 -209l-88 -172zM406 338q0 -66 41.5 -95.5t107.5 -29.5q43 0 68 6q14 2 26 6v244h-43q-18 0 -39.5 -2t-38.5 -4q-66 -10 -94 -41t-28 -84z" />
<glyph unicode="&#xe1;" horiz-adv-x="1083" d="M51 322q0 158 93.5 239.5t246.5 93.5q41 4 86 5.5t84 3.5q45 2 88 2v36q0 57 -28.5 85t-110.5 28q-53 0 -110.5 -7t-104.5 -17q-55 -10 -111 -23l-47 209q70 20 146 39q66 16 143.5 28.5t155.5 14.5q82 2 156.5 -14.5t131 -55.5t89 -103.5t32.5 -158.5v-676 q-57 -16 -125 -31q-59 -12 -136 -22t-167 -10q-133 -2 -229 21.5t-158.5 66.5t-93.5 105.5t-31 140.5zM315 1282l347 209l104 -203l-363 -178zM406 338q0 -66 41.5 -95.5t107.5 -29.5q43 0 68 6q14 2 26 6v244h-43q-18 0 -39.5 -2t-38.5 -4q-66 -10 -94 -41t-28 -84z" />
<glyph unicode="&#xe2;" horiz-adv-x="1083" d="M51 322q0 158 93.5 239.5t246.5 93.5q41 4 86 5.5t84 3.5q45 2 88 2v36q0 57 -28.5 85t-110.5 28q-53 0 -110.5 -7t-104.5 -17q-55 -10 -111 -23l-47 209q70 20 146 39q66 16 143.5 28.5t155.5 14.5q82 2 156.5 -14.5t131 -55.5t89 -103.5t32.5 -158.5v-676 q-57 -16 -125 -31q-59 -12 -136 -22t-167 -10q-133 -2 -229 21.5t-158.5 66.5t-93.5 105.5t-31 140.5zM250 1292l313 181l318 -181l-76 -162l-242 117l-237 -110zM406 338q0 -66 41.5 -95.5t107.5 -29.5q43 0 68 6q14 2 26 6v244h-43q-18 0 -39.5 -2t-38.5 -4 q-66 -10 -94 -41t-28 -84z" />
<glyph unicode="&#xe3;" horiz-adv-x="1083" d="M51 322q0 158 93.5 239.5t246.5 93.5q41 4 86 5.5t84 3.5q45 2 88 2v36q0 57 -28.5 85t-110.5 28q-53 0 -110.5 -7t-104.5 -17q-55 -10 -111 -23l-47 209q70 20 146 39q66 16 143.5 28.5t155.5 14.5q82 2 156.5 -14.5t131 -55.5t89 -103.5t32.5 -158.5v-676 q-57 -16 -125 -31q-59 -12 -136 -22t-167 -10q-133 -2 -229 21.5t-158.5 66.5t-93.5 105.5t-31 140.5zM244 1313q31 35 63 61q29 23 62.5 42.5t68.5 19.5q31 0 60.5 -11.5t57.5 -26t51.5 -25.5t45.5 -11q23 0 42.5 7t31.5 17q14 10 27 25l84 -158q-29 -29 -60 -51 q-27 -18 -59.5 -33.5t-65.5 -15.5q-37 0 -65.5 12.5t-53 27.5t-47 27.5t-45.5 12.5t-44 -11.5t-38 -23.5q-20 -14 -36 -33zM406 338q0 -66 41.5 -95.5t107.5 -29.5q43 0 68 6q14 2 26 6v244h-43q-18 0 -39.5 -2t-38.5 -4q-66 -10 -94 -41t-28 -84z" />
<glyph unicode="&#xe4;" horiz-adv-x="1083" d="M51 322q0 158 93.5 239.5t246.5 93.5q41 4 86 5.5t84 3.5q45 2 88 2v36q0 57 -28.5 85t-110.5 28q-53 0 -110.5 -7t-104.5 -17q-55 -10 -111 -23l-47 209q70 20 146 39q66 16 143.5 28.5t155.5 14.5q82 2 156.5 -14.5t131 -55.5t89 -103.5t32.5 -158.5v-676 q-57 -16 -125 -31q-59 -12 -136 -22t-167 -10q-133 -2 -229 21.5t-158.5 66.5t-93.5 105.5t-31 140.5zM199 1270q0 55 41 95t100 40t99 -40t40 -95q0 -53 -40 -93t-99 -40t-100 40t-41 93zM406 338q0 -66 41.5 -95.5t107.5 -29.5q43 0 68 6q14 2 26 6v244h-43 q-18 0 -39.5 -2t-38.5 -4q-66 -10 -94 -41t-28 -84zM602 1270q0 55 41 95t100 40t99.5 -40t40.5 -95q0 -53 -40.5 -93t-99.5 -40t-100 40t-41 93z" />
<glyph unicode="&#xe5;" horiz-adv-x="1083" d="M51 322q0 158 93.5 239.5t246.5 93.5q41 4 86 5.5t84 3.5q45 2 88 2v36q0 57 -28.5 85t-110.5 28q-53 0 -110.5 -7t-104.5 -17q-55 -10 -111 -23l-47 209q70 20 146 39q66 16 143.5 28.5t155.5 14.5q82 2 156.5 -14.5t131 -55.5t89 -103.5t32.5 -158.5v-676 q-57 -16 -125 -31q-59 -12 -136 -22t-167 -10q-133 -2 -229 21.5t-158.5 66.5t-93.5 105.5t-31 140.5zM362 1280q0 72 51.5 122t129.5 50q74 0 126 -50t52 -122q0 -35 -14.5 -66.5t-38 -55t-56 -37t-69.5 -13.5q-78 0 -129.5 50t-51.5 122zM406 338q0 -66 41.5 -95.5 t107.5 -29.5q43 0 68 6q14 2 26 6v244h-43q-18 0 -39.5 -2t-38.5 -4q-66 -10 -94 -41t-28 -84zM496 1280q0 -29 13 -41t36 -12t37 12t14 41q0 23 -12.5 38t-38.5 15q-27 0 -38 -15t-11 -38z" />
<glyph unicode="&#xe6;" horiz-adv-x="1693" d="M51 322q0 158 93.5 239.5t246.5 93.5q41 4 86 5.5t84 3.5q45 2 88 2v36q0 57 -28.5 85t-110.5 28q-53 0 -110.5 -7t-104.5 -17q-55 -10 -111 -23l-47 209q70 20 146 39q66 16 143.5 28.5t155.5 14.5t140 -21.5t103 -83.5q68 53 154 79t184 26q145 0 241.5 -45t151 -126 t72 -193.5t6.5 -248.5h-626q0 -111 66 -152.5t183 -41.5q53 0 103.5 10t87.5 23q43 14 82 34l102 -217q-61 -33 -137 -57q-66 -23 -153 -40t-191 -17q-162 0 -268 53q-59 -18 -140 -34.5t-180 -18.5q-133 -2 -229 21.5t-158.5 66.5t-93.5 105.5t-31 140.5zM406 338 q0 -66 41.5 -95.5t107.5 -29.5q35 0 79 9t66 14q-23 49 -35 106t-16 127h-43q-18 0 -39.5 -2t-38.5 -4q-66 -10 -94 -41t-28 -84zM1016 639h276q4 43 -6 80q-10 31 -33.5 56.5t-74.5 25.5q-158 0 -162 -162z" />
<glyph unicode="&#xe7;" horiz-adv-x="985" d="M51 537q0 135 38 233t106.5 162.5t164 95.5t209.5 31q74 0 140.5 -14.5t117.5 -30.5q59 -20 113 -43l-100 -215q-39 14 -80 24q-35 10 -79 16.5t-85 2.5q-100 -8 -151.5 -68.5t-51.5 -202.5q0 -80 15.5 -133t44 -83.5t69.5 -43t94 -14.5q53 -4 95.5 2t74.5 14q37 8 68 23 l88 -213q-45 -25 -100 -45q-47 -16 -115 -31.5t-147 -15.5l-13 -68q57 -10 85 -50t28 -87q0 -90 -51 -146.5t-164 -52.5q-27 0 -55.5 6.5t-51.5 12.5q-27 8 -53 18l51 135q10 -6 23 -10q10 -4 23.5 -6t25.5 -2q53 0 55 47q2 27 -21.5 39t-62.5 12l-24 4l31 162 q-80 16 -144.5 54t-112 101.5t-73 157t-25.5 222.5z" />
<glyph unicode="&#xe8;" horiz-adv-x="1097" d="M51 530q0 137 41 237.5t110.5 165t164 95.5t200.5 31q145 0 241.5 -45t151 -126t72 -193.5t6.5 -248.5h-626q0 -111 66.5 -152.5t183.5 -41.5q53 0 103 10t87 23q43 14 82 34l102 -217q-61 -33 -137 -57q-66 -23 -153 -40t-191 -17q-248 0 -376 132t-128 410zM348 1288 l105 203l346 -209l-88 -172zM420 639h276q4 43 -6 80q-10 31 -33.5 56.5t-74.5 25.5q-158 0 -162 -162z" />
<glyph unicode="&#xe9;" horiz-adv-x="1097" d="M51 530q0 137 41 237.5t110.5 165t164 95.5t200.5 31q145 0 241.5 -45t151 -126t72 -193.5t6.5 -248.5h-626q0 -111 66.5 -152.5t183.5 -41.5q53 0 103 10t87 23q43 14 82 34l102 -217q-61 -33 -137 -57q-66 -23 -153 -40t-191 -17q-248 0 -376 132t-128 410zM324 1282 l346 209l104 -203l-362 -178zM420 639h276q4 43 -6 80q-10 31 -33.5 56.5t-74.5 25.5q-158 0 -162 -162z" />
<glyph unicode="&#xea;" horiz-adv-x="1097" d="M51 530q0 137 41 237.5t110.5 165t164 95.5t200.5 31q145 0 241.5 -45t151 -126t72 -193.5t6.5 -248.5h-626q0 -111 66.5 -152.5t183.5 -41.5q53 0 103 10t87 23q43 14 82 34l102 -217q-61 -33 -137 -57q-66 -23 -153 -40t-191 -17q-248 0 -376 132t-128 410zM262 1292 l313 181l318 -181l-76 -162l-242 117l-237 -110zM420 639h276q4 43 -6 80q-10 31 -33.5 56.5t-74.5 25.5q-158 0 -162 -162z" />
<glyph unicode="&#xeb;" horiz-adv-x="1097" d="M51 530q0 137 41 237.5t110.5 165t164 95.5t200.5 31q145 0 241.5 -45t151 -126t72 -193.5t6.5 -248.5h-626q0 -111 66.5 -152.5t183.5 -41.5q53 0 103 10t87 23q43 14 82 34l102 -217q-61 -33 -137 -57q-66 -23 -153 -40t-191 -17q-248 0 -376 132t-128 410zM221 1270 q0 55 41 95t100 40t99.5 -40t40.5 -95q0 -53 -40.5 -93t-99.5 -40t-100 40t-41 93zM420 639h276q4 43 -6 80q-10 31 -33.5 56.5t-74.5 25.5q-158 0 -162 -162zM625 1270q0 55 41 95t100 40t99 -40t40 -95q0 -53 -40 -93t-99 -40t-100 40t-41 93z" />
<glyph unicode="&#xec;" horiz-adv-x="548" d="M49 1288l105 203l346 -209l-88 -172zM104 0v1047h345v-979q0 -37 -16.5 -52.5t-53.5 -15.5h-275z" />
<glyph unicode="&#xed;" horiz-adv-x="548" d="M49 1282l346 209l105 -203l-363 -178zM104 0v1047h345v-979q0 -37 -16.5 -52.5t-53.5 -15.5h-275z" />
<glyph unicode="&#xee;" horiz-adv-x="548" d="M-39 1292l313 181l318 -181l-76 -162l-242 117l-237 -110zM104 0v1047h345v-979q0 -37 -16.5 -52.5t-53.5 -15.5h-275z" />
<glyph unicode="&#xef;" horiz-adv-x="548" d="M-68 1270q0 55 41 95t101 40q59 0 99 -40t40 -95q0 -53 -40 -93t-99 -40t-100.5 40t-41.5 93zM104 0v1047h345v-979q0 -37 -16.5 -52.5t-53.5 -15.5h-275zM336 1270q0 55 41 95t100 40t99 -40t40 -95q0 -53 -40 -93t-99 -40t-100 40t-41 93z" />
<glyph unicode="&#xf1;" horiz-adv-x="1187" d="M102 0v1047h344v-89q41 33 95 56q45 20 104.5 34.5t128.5 10.5q154 -10 238 -97.5t84 -246.5v-647q0 -37 -16.5 -52.5t-55.5 -15.5h-272v666q0 131 -88 131q-45 0 -84 -15.5t-68 -33.5q-35 -23 -66 -48v-700h-344zM295 1313q31 35 63 61q29 23 63 42.5t68 19.5 q31 0 61 -11.5t57.5 -26t51 -25.5t46.5 -11t42 7t31 17q14 10 27 25l84 -158q-29 -29 -60 -51q-27 -18 -59.5 -33.5t-64.5 -15.5q-37 0 -66 12.5t-53.5 27.5t-47 27.5t-44.5 12.5q-23 0 -44.5 -11.5t-37.5 -23.5q-20 -14 -37 -33z" />
<glyph unicode="&#xf2;" horiz-adv-x="1155" d="M51 541q0 135 38 232t108.5 160.5t168 94.5t218.5 31q123 0 220 -31t164.5 -95.5t102.5 -167.5t35 -247q0 -143 -37 -244.5t-107.5 -165t-172 -92t-232.5 -28.5q-115 0 -208 26.5t-159.5 90t-102.5 170t-36 266.5zM352 1288l105 203l346 -209l-88 -172zM395 532 q0 -168 43 -237.5t137 -69.5q43 0 77 13.5t58.5 47t37 94t12.5 152.5q0 94 -13.5 150.5t-37 87.5t-55 41t-70.5 10q-96 0 -142.5 -61.5t-46.5 -227.5z" />
<glyph unicode="&#xf3;" horiz-adv-x="1155" d="M51 541q0 135 38 232t108.5 160.5t168 94.5t218.5 31q123 0 220 -31t164.5 -95.5t102.5 -167.5t35 -247q0 -143 -37 -244.5t-107.5 -165t-172 -92t-232.5 -28.5q-115 0 -208 26.5t-159.5 90t-102.5 170t-36 266.5zM352 1282l346 209l105 -203l-363 -178zM395 532 q0 -168 43 -237.5t137 -69.5q43 0 77 13.5t58.5 47t37 94t12.5 152.5q0 94 -13.5 150.5t-37 87.5t-55 41t-70.5 10q-96 0 -142.5 -61.5t-46.5 -227.5z" />
<glyph unicode="&#xf4;" horiz-adv-x="1155" d="M51 541q0 135 38 232t108.5 160.5t168 94.5t218.5 31q123 0 220 -31t164.5 -95.5t102.5 -167.5t35 -247q0 -143 -37 -244.5t-107.5 -165t-172 -92t-232.5 -28.5q-115 0 -208 26.5t-159.5 90t-102.5 170t-36 266.5zM262 1292l313 181l318 -181l-76 -162l-242 117 l-237 -110zM395 532q0 -168 43 -237.5t137 -69.5q43 0 77 13.5t58.5 47t37 94t12.5 152.5q0 94 -13.5 150.5t-37 87.5t-55 41t-70.5 10q-96 0 -142.5 -61.5t-46.5 -227.5z" />
<glyph unicode="&#xf5;" horiz-adv-x="1155" d="M51 541q0 135 38 232t108.5 160.5t168 94.5t218.5 31q123 0 220 -31t164.5 -95.5t102.5 -167.5t35 -247q0 -143 -37 -244.5t-107.5 -165t-172 -92t-232.5 -28.5q-115 0 -208 26.5t-159.5 90t-102.5 170t-36 266.5zM283 1313q31 35 63 61q29 23 62.5 42.5t68.5 19.5 q31 0 60.5 -11.5t57.5 -26t51.5 -25.5t45.5 -11q23 0 42.5 7t31.5 17q14 10 27 25l84 -158q-29 -29 -60 -51q-27 -18 -59.5 -33.5t-65.5 -15.5q-37 0 -65.5 12.5t-53 27.5t-47 27.5t-45.5 12.5t-44 -11.5t-38 -23.5q-20 -14 -37 -33zM395 532q0 -168 43 -237.5t137 -69.5 q43 0 77 13.5t58.5 47t37 94t12.5 152.5q0 94 -13.5 150.5t-37 87.5t-55 41t-70.5 10q-96 0 -142.5 -61.5t-46.5 -227.5z" />
<glyph unicode="&#xf6;" horiz-adv-x="1155" d="M51 541q0 135 38 232t108.5 160.5t168 94.5t218.5 31q123 0 220 -31t164.5 -95.5t102.5 -167.5t35 -247q0 -143 -37 -244.5t-107.5 -165t-172 -92t-232.5 -28.5q-115 0 -208 26.5t-159.5 90t-102.5 170t-36 266.5zM236 1270q0 55 40.5 95t100.5 40q59 0 99 -40t40 -95 q0 -53 -40 -93t-99 -40t-100 40t-41 93zM395 532q0 -168 43 -237.5t137 -69.5q43 0 77 13.5t58.5 47t37 94t12.5 152.5q0 94 -13.5 150.5t-37 87.5t-55 41t-70.5 10q-96 0 -142.5 -61.5t-46.5 -227.5zM639 1270q0 55 41 95t100 40t99.5 -40t40.5 -95q0 -53 -40.5 -93 t-99.5 -40t-100 40t-41 93z" />
<glyph unicode="&#xf7;" horiz-adv-x="1007" d="M0 346v234h1008v-234h-1008zM356 133q0 66 45 111t109 45q66 0 110 -45t44 -111q0 -63 -44 -108t-110 -45q-63 0 -108.5 45t-45.5 108zM356 786q0 66 45 111t109 45q66 0 110 -45t44 -111q0 -63 -44 -108t-110 -45q-63 0 -108.5 45t-45.5 108z" />
<glyph unicode="&#xf8;" horiz-adv-x="1155" d="M51 541q0 135 38 232t108.5 160.5t168 94.5t218.5 31q137 0 239 -37l29 37h242l-109 -146q121 -133 121 -395q0 -143 -37 -244.5t-107.5 -165t-172 -92t-232.5 -28.5q-137 0 -242 37q-27 -25 -73 -25h-176l98 131q-53 66 -83 166t-30 244zM395 488q0 -21 2 -39l267 358 q-16 8 -36.5 11t-43.5 3q-96 0 -142.5 -61.5t-46.5 -227.5v-44zM485 246q35 -20 90 -21q43 0 77 13.5t58.5 47t37 94t12.5 152.5v40t-2 36z" />
<glyph unicode="&#xf9;" horiz-adv-x="1183" d="M94 367v680h344v-627q0 -55 10.5 -88t29 -49.5t44 -20.5t56.5 -2q41 2 70.5 19.5t49.5 37.5q23 23 39 52v678h344v-981q0 -66 -69 -66h-275l2 117q-33 -33 -71 -60q-35 -23 -84 -43t-109 -24q-193 -12 -287 83t-94 294zM367 1288l104 203l346 -209l-88 -172z" />
<glyph unicode="&#xfa;" horiz-adv-x="1183" d="M94 367v680h344v-627q0 -55 10.5 -88t29 -49.5t44 -20.5t56.5 -2q41 2 70.5 19.5t49.5 37.5q23 23 39 52v678h344v-981q0 -66 -69 -66h-275l2 117q-33 -33 -71 -60q-35 -23 -84 -43t-109 -24q-193 -12 -287 83t-94 294zM367 1282l346 209l104 -203l-362 -178z" />
<glyph unicode="&#xfb;" horiz-adv-x="1183" d="M94 367v680h344v-627q0 -55 10.5 -88t29 -49.5t44 -20.5t56.5 -2q41 2 70.5 19.5t49.5 37.5q23 23 39 52v678h344v-981q0 -66 -69 -66h-275l2 117q-33 -33 -71 -60q-35 -23 -84 -43t-109 -24q-193 -12 -287 83t-94 294zM281 1292l313 181l317 -181l-75 -162l-242 117 l-238 -110z" />
<glyph unicode="&#xfc;" horiz-adv-x="1183" d="M94 367v680h344v-627q0 -55 10.5 -88t29 -49.5t44 -20.5t56.5 -2q41 2 70.5 19.5t49.5 37.5q23 23 39 52v678h344v-981q0 -66 -69 -66h-275l2 117q-33 -33 -71 -60q-35 -23 -84 -43t-109 -24q-193 -12 -287 83t-94 294zM250 1270q0 55 41 95t100 40t99 -40t40 -95 q0 -53 -40 -93t-99 -40t-100 40t-41 93zM653 1270q0 55 41 95t101 40q59 0 99 -40t40 -95q0 -53 -40 -93t-99 -40t-100.5 40t-41.5 93z" />
<glyph unicode="&#xfd;" horiz-adv-x="1142" d="M14 1047h369l190 -678l191 678h360l-432 -1260q-53 -156 -185 -215t-325 -59h-33.5t-42.5 2v235q61 0 105.5 6t75 20.5t52 39t38.5 63.5q10 27 20.5 59.5t20.5 63.5zM346 1282l346 209l105 -203l-363 -178z" />
<glyph unicode="&#xfe;" horiz-adv-x="1200" d="M102 -440v1874h344v-392q47 8 97.5 12.5t101.5 4.5q102 0 194.5 -26.5t162 -86t110.5 -154t41 -229.5q0 -152 -42 -258t-110.5 -176t-158.5 -101.5t-185 -31.5q-29 0 -64.5 3t-68.5 7q-37 4 -75 10v-417zM446 266q20 -4 46 -8q20 -4 47.5 -5t56.5 -1q94 0 153.5 64.5 t59.5 211.5q0 152 -55.5 216.5t-159.5 64.5q-23 0 -48.5 -2t-47.5 -6q-25 -4 -52 -6v-529z" />
<glyph unicode="&#xff;" horiz-adv-x="1142" d="M14 1047h369l190 -678l191 678h360l-432 -1260q-53 -156 -185 -215t-325 -59h-33.5t-42.5 2v235q61 0 105.5 6t75 20.5t52 39t38.5 63.5q10 27 20.5 59.5t20.5 63.5zM229 1270q0 55 41 95t101 40q59 0 99 -40t40 -95q0 -53 -40 -93t-99 -40t-100.5 40t-41.5 93zM633 1270 q0 55 41 95t100 40t99 -40t40 -95q0 -53 -40 -93t-99 -40t-100 40t-41 93z" />
<glyph unicode="&#x152;" horiz-adv-x="1892" d="M66 739q0 352 145 530.5t459 178.5q131 0 248 -68v54h899v-242h-543v-330h493v-241h-493v-369h553v-186q0 -66 -70 -66h-839v51q-59 -33 -126 -47t-135 -14q-162 0 -274.5 41t-183 131t-102 232.5t-31.5 344.5zM424 729q0 -129 10 -217t37 -143.5t74 -80t121 -24.5 q57 0 101 13.5t74.5 47t49 92t27.5 150.5v326q-8 90 -28 146.5t-48.5 88t-68.5 43t-89 11.5q-76 0 -126 -22.5t-79.5 -76t-42 -139.5t-12.5 -215z" />
<glyph unicode="&#x153;" horiz-adv-x="1798" d="M51 541q0 135 38 232t108.5 160.5t168 94.5t218.5 31q227 0 356 -103q66 53 147.5 78t180.5 25q145 0 241.5 -45t150.5 -126t71.5 -193.5t7.5 -248.5h-627q0 -111 66.5 -152.5t183.5 -41.5q53 0 103.5 10t86.5 23q43 14 82 34l103 -217q-61 -33 -138 -57 q-66 -23 -152.5 -40t-191.5 -17q-211 0 -325 94q-70 -49 -163 -71.5t-210 -22.5q-115 0 -208 26.5t-159.5 90t-102.5 170t-36 266.5zM395 532q0 -168 43 -237.5t137 -69.5q43 0 77 13.5t58.5 47t37 94t12.5 152.5q0 94 -13.5 150.5t-37 87.5t-55 41t-70.5 10 q-96 0 -142.5 -61.5t-46.5 -227.5zM1120 639h277q4 43 -6 80q-10 31 -34 56.5t-75 25.5q-158 0 -162 -162z" />
<glyph unicode="&#x178;" horiz-adv-x="1218" d="M33 1434h375l198 -650l217 650h365l-408 -961v-410q0 -63 -65 -63h-291v469zM266 1657q0 55 41 95t101 40q59 0 99 -40t40 -95q0 -53 -40 -93t-99 -40t-100.5 40t-41.5 93zM670 1657q0 55 41 95t100 40t99 -40t40 -95q0 -53 -40 -93t-99 -40t-100 40t-41 93z" />
<glyph unicode="&#x2c6;" horiz-adv-x="675" d="M23 1292l313 181l317 -181l-75 -162l-242 117l-238 -110z" />
<glyph unicode="&#x2dc;" horiz-adv-x="675" d="M33 1313q31 35 63 61q29 23 63 42.5t68 19.5q31 0 60.5 -11.5t57.5 -26t51.5 -25.5t45.5 -11q23 0 42.5 7t31.5 17q14 10 27 25l84 -158q-29 -29 -60 -51q-27 -18 -59.5 -33.5t-65.5 -15.5q-37 0 -65.5 12.5t-53 27.5t-47 27.5t-45.5 12.5t-44 -11.5t-37 -23.5 q-20 -14 -37 -33z" />
<glyph unicode="&#x2000;" horiz-adv-x="939" />
<glyph unicode="&#x2001;" horiz-adv-x="1878" />
<glyph unicode="&#x2002;" horiz-adv-x="939" />
<glyph unicode="&#x2003;" horiz-adv-x="1878" />
<glyph unicode="&#x2004;" horiz-adv-x="626" />
<glyph unicode="&#x2005;" horiz-adv-x="469" />
<glyph unicode="&#x2006;" horiz-adv-x="313" />
<glyph unicode="&#x2007;" horiz-adv-x="313" />
<glyph unicode="&#x2008;" horiz-adv-x="234" />
<glyph unicode="&#x2009;" horiz-adv-x="375" />
<glyph unicode="&#x200a;" horiz-adv-x="104" />
<glyph unicode="&#x2010;" horiz-adv-x="792" d="M96 446v193h600v-193h-600z" />
<glyph unicode="&#x2011;" horiz-adv-x="792" d="M96 446v193h600v-193h-600z" />
<glyph unicode="&#x2012;" horiz-adv-x="792" d="M96 446v193h600v-193h-600z" />
<glyph unicode="&#x2013;" horiz-adv-x="1046" d="M96 446v193h854v-193h-854z" />
<glyph unicode="&#x2014;" horiz-adv-x="1755" d="M96 446v193h1563v-193h-1563z" />
<glyph unicode="&#x2018;" horiz-adv-x="512" d="M61 1151q-4 68 6.5 123t31 97t48 73t56.5 53q68 51 159 70l37 -107q-86 -33 -109.5 -76t-21.5 -94q37 2 63.5 -11t43 -33.5t26 -46t9.5 -46.5q4 -66 -44 -117t-126 -55q-41 -2 -73 11.5t-54.5 38t-36 55t-15.5 65.5z" />
<glyph unicode="&#x2019;" horiz-adv-x="512" d="M131 1370q-4 66 44 117t126 55q41 2 73 -11t54.5 -38t35.5 -56.5t15 -64.5q4 -70 -7 -124t-30.5 -96t-47 -73.5t-56.5 -52.5q-68 -51 -160 -70l-37 107q86 33 109.5 76t21.5 94q-37 -2 -63.5 11t-42.5 33.5t-25.5 45.5t-9.5 47z" />
<glyph unicode="&#x201a;" horiz-adv-x="509" d="M100 113q-4 66 44 117t126 55q41 2 73 -11.5t54.5 -38t35.5 -56.5t16 -64q4 -70 -7.5 -124t-31 -96t-47 -74t-56.5 -52q-68 -51 -160 -70l-36 106q86 33 109.5 76t21.5 94q-37 -2 -63.5 11.5t-43 34t-26 45t-9.5 47.5z" />
<glyph unicode="&#x201c;" horiz-adv-x="921" d="M37 1151q-4 68 6 123t30.5 97t48.5 73t56 53q68 51 160 70l37 -107q-86 -33 -109.5 -76t-21.5 -94q37 2 63.5 -11t43 -33.5t25.5 -46t9 -46.5q4 -66 -44 -117t-126 -55q-41 -2 -72.5 11.5t-54 38t-36 55t-15.5 65.5zM481 1151q-4 68 6.5 123t31 97t48 73t56.5 53 q68 51 159 70l37 -107q-86 -33 -109.5 -76t-21.5 -94q37 2 63.5 -11t43 -33.5t25.5 -46t9 -46.5q4 -66 -44 -117t-126 -55q-41 -2 -72.5 11.5t-54 38t-36 55t-15.5 65.5z" />
<glyph unicode="&#x201d;" horiz-adv-x="921" d="M70 1370q-4 66 44 117t126 55q41 2 72.5 -11t54 -38t36 -56.5t15.5 -64.5q4 -70 -7.5 -124t-31 -96t-47 -73.5t-56.5 -52.5q-68 -51 -159 -70l-37 107q86 33 109.5 76t21.5 94q-37 -2 -63.5 11t-43 33.5t-25.5 45.5t-9 47zM532 1370q-4 66 44 117t126 55q41 2 73 -11 t54.5 -38t36 -56.5t15.5 -64.5q4 -70 -7.5 -124t-31 -96t-47 -73.5t-56.5 -52.5q-68 -51 -159 -70l-37 107q86 33 109.5 76t21.5 94q-37 -2 -63.5 11t-43 33.5t-26 45.5t-9.5 47z" />
<glyph unicode="&#x201e;" horiz-adv-x="919" d="M72 113q-4 66 44 117t126 55q41 2 72.5 -11.5t54 -38t36 -56.5t15.5 -64q4 -70 -7.5 -124t-31 -96t-47 -74t-55.5 -52q-68 -51 -160 -70l-37 106q86 33 109.5 76t21.5 94q-37 -2 -63.5 11.5t-43 34t-25.5 45t-9 47.5zM514 113q-4 66 44 117t126 55q41 2 72.5 -11.5 t54.5 -38t36 -56.5t15 -64q4 -70 -7 -124t-30.5 -96t-47 -74t-56.5 -52q-68 -51 -160 -70l-37 106q86 33 109.5 76t21.5 94q-37 -2 -63.5 11.5t-43 34t-25.5 45t-9 47.5z" />
<glyph unicode="&#x2022;" horiz-adv-x="677" d="M68 604q0 55 20.5 104.5t57 86t86 58t106.5 21.5q55 0 104.5 -21.5t86 -58t58 -86t21.5 -104.5q0 -57 -21.5 -106t-58 -86t-86 -57.5t-104.5 -20.5q-57 0 -106.5 20.5t-86 57.5t-57 86t-20.5 106z" />
<glyph unicode="&#x2026;" horiz-adv-x="1259" d="M23 141q0 33 13 62.5t35.5 51t53.5 34t65 12.5q72 0 120 -47t48 -113t-48 -112.5t-120 -46.5q-35 0 -65.5 12t-53 33.5t-35.5 51.5t-13 62zM459 141q0 33 13 62.5t35.5 51t53.5 34t66 12.5q72 0 120 -47t48 -113t-48 -112.5t-120 -46.5q-35 0 -66 12t-53.5 33.5 t-35.5 51.5t-13 62zM895 141q0 33 13.5 62.5t36 51t53 34t65.5 12.5q72 0 120 -47t48 -113t-48 -112.5t-120 -46.5q-35 0 -65.5 12t-53 33.5t-36 51.5t-13.5 62z" />
<glyph unicode="&#x202f;" horiz-adv-x="375" />
<glyph unicode="&#x2039;" horiz-adv-x="675" d="M57 535l342 524l232 -127l-260 -397l260 -390l-236 -133z" />
<glyph unicode="&#x203a;" horiz-adv-x="675" d="M66 145l260 390l-260 397l231 127l342 -524l-338 -523z" />
<glyph unicode="&#x205f;" horiz-adv-x="469" />
<glyph unicode="&#x20ac;" d="M6 457l33 192h78q-2 20 -2 42v44v43h-103l33 193h92q27 125 84.5 215t137 148.5t179 86t214.5 27.5q78 0 149.5 -9t124.5 -20q63 -12 119 -26l-49 -238q-49 12 -101 21q-43 8 -93 13t-93 3q-109 -8 -187.5 -56.5t-117.5 -164.5h479l-33 -193h-479v-51v-41t2 -37h457 l-33 -192h-391q37 -109 111.5 -152t187.5 -51q47 -4 101.5 1t101.5 13q53 8 106 21l39 -256q-63 -14 -135 -23q-61 -10 -139 -16t-156 -6q-106 0 -200.5 22.5t-171.5 76.5t-131 144.5t-81 225.5h-133z" />
<glyph unicode="&#x2122;" horiz-adv-x="1064" d="M117 1331v103h305v-103h-92v-274q0 -18 -19 -19h-98v293h-96zM465 1038v396h133l109 -252l106 252h129v-377q0 -18 -18 -19h-86v209l-95 -209h-79l-93 211v-211h-106z" />
<glyph unicode="&#x25fc;" horiz-adv-x="1044" d="M0 0v1044h1044v-1044h-1044z" />
<glyph unicode="&#xfb01;" horiz-adv-x="1282" d="M20 807v240h173v129q0 86 30.5 155.5t87 117.5t134 73.5t171.5 25.5q59 0 127 -12t125 -29q68 -18 133 -41l-79 -219q-51 12 -97 21q-39 8 -79.5 15t-65.5 7q-78 0 -110.5 -51t-32.5 -125v-67h645v-979q0 -37 -16.5 -52.5t-53.5 -15.5h-274v807h-301v-739 q0 -37 -13.5 -52.5t-44.5 -15.5h-286v807h-173z" />
<glyph unicode="&#xfb02;" horiz-adv-x="1380" d="M20 807v240h173v129q0 86 32.5 155.5t91 117.5t138.5 73.5t174 25.5q92 0 189 -16t179 -37q96 -23 185 -51v-1075q0 -59 27.5 -85t86.5 -32q27 -2 37 -2h37v-182q0 -37 -16.5 -51.5t-53.5 -16.5h-124q-82 0 -145.5 26.5t-106.5 71.5t-64.5 104.5t-21.5 127.5v940 q-29 8 -69 14t-89 6q-78 0 -110.5 -51t-32.5 -125v-67h188v-240h-188v-739q0 -37 -13.5 -52.5t-44.5 -15.5h-286v807h-173z" />
</font>
</defs>
</svg>
